<?xml version="1.0" standalone="no"?>
<!DOCTYPE svg PUBLIC "-//W3C//DTD SVG 20010904//EN"
 "http://www.w3.org/TR/2001/REC-SVG-20010904/DTD/svg10.dtd">
<svg version="1.0" xmlns="http://www.w3.org/2000/svg"
 width="500.000000pt" height="500.000000pt" viewBox="0 0 500.000000 500.000000"
 preserveAspectRatio="xMidYMid meet">
<metadata>
Created by potrace 1.11, written by Peter Selinger 2001-2013
</metadata>
<g transform="translate(0.000000,500.000000) scale(0.100000,-0.100000)"
fill="#000000" stroke="none">
<path d="M511 4850 c-89 -25 -147 -56 -220 -120 -30 -26 -91 -110 -110 -154
-46 -101 -44 -26 -46 -2051 -1 -1999 -1 -1992 40 -2090 51 -119 172 -233 285
-268 8 -2 17 -5 20 -6 62 -26 183 -27 2045 -26 l1930 2 64 22 c156 54 268 166
322 321 l22 65 2 1940 c1 1839 0 1944 -17 2007 -44 164 -166 293 -328 349
l-65 22 -1944 1 c-1722 1 -1950 -1 -2000 -14z m3382 -1139 l97 -1 0 -160 0
-160 -183 0 -182 0 0 -1050 c0 -1044 0 -1050 -20 -1051 -25 -1 -397 -1 -407 0
-5 1 -8 281 -8 624 l0 622 -175 0 c-96 0 -175 -2 -176 -5 0 -3 -2 -124 -3
-270 -2 -146 -8 -287 -14 -315 -37 -172 -123 -325 -246 -434 -16 -14 -36 -33
-45 -41 -53 -51 -201 -126 -300 -151 -98 -25 -118 -28 -226 -29 -152 -2 -292
34 -409 105 -32 19 -60 35 -63 35 -2 0 -10 6 -17 13 -8 6 -37 32 -67 57 -112
95 -217 258 -255 395 -22 81 -30 267 -14 362 29 184 113 339 258 480 214 210
472 275 784 198 10 -2 56 -19 103 -38 l85 -34 0 263 0 264 -700 0 -700 0 0
160 0 159 158 3 c126 2 2335 1 2725 -1z"/>
<path d="M2839 3373 c-1 -24 -1 -422 0 -449 1 -21 5 -21 176 -22 l175 0 0 244
0 244 -175 0 c-160 0 -175 -2 -176 -17z"/>
<path d="M2008 2565 c-2 -1 -25 -5 -53 -8 -99 -11 -173 -46 -246 -114 -144
-135 -178 -349 -83 -523 117 -216 403 -289 610 -157 197 125 259 388 140 592
-33 55 -112 128 -176 160 -44 22 -183 58 -192 50z"/>
</g>
</svg>
