<svg xmlns="http://www.w3.org/2000/svg" viewBox="643.647 -1199.517 43.034 43.034">
  <defs>
    <style>
      .cls-1 {
        fill: #3b5998;
      }

      .cls-2 {
        fill: #fff;
      }
    </style>
  </defs>
  <g id="if_square-facebook_317727" transform="translate(643.647 -1199.517)">
    <path id="Path_6" data-name="Path 6" class="cls-1" d="M43.034,40.345a2.691,2.691,0,0,1-2.69,2.69H2.69A2.691,2.691,0,0,1,0,40.345V2.69A2.691,2.691,0,0,1,2.69,0H40.344a2.691,2.691,0,0,1,2.69,2.69Z"/>
    <path id="f" class="cls-2" d="M25.1,41.31V25.172h5.379l1.345-6.724H25.1v-2.69q0-4.034,4.034-4.034h2.69V5H26.448c-4.942,0-8.069,3.874-8.069,9.414v4.034H13v6.724h5.379V41.31Z" transform="translate(4.483 1.724)"/>
  </g>
</svg>
