<svg xmlns="http://www.w3.org/2000/svg" xmlns:xlink="http://www.w3.org/1999/xlink" viewBox="587.164 -1199.517 43.034 43.034">
  <defs>
    <style>
      .cls-1 {
        fill: none;
      }

      .cls-2 {
        fill-rule: evenodd;
        fill: url(#radial-gradient);
      }
    </style>
    <radialGradient id="radial-gradient" cx="6.425" cy="43.184" r="54.987" gradientUnits="userSpaceOnUse">
      <stop offset="0" stop-color="#ffb140"/>
      <stop offset="0.256" stop-color="#ff5445"/>
      <stop offset="0.599" stop-color="#fc2b82"/>
      <stop offset="1" stop-color="#8e40b7"/>
    </radialGradient>
  </defs>
  <g id="if_Instagram_1298747" transform="translate(587.164 -1199.517)">
    <g id="Instagram_1_">
      <rect id="Rectangle_11" data-name="Rectangle 11" class="cls-1" width="43.034" height="43.034"/>
      <path id="Instagram" class="cls-2" d="M35.585,10.031A2.582,2.582,0,1,1,33,7.449,2.582,2.582,0,0,1,35.585,10.031ZM21.517,28.689a7.172,7.172,0,1,1,7.172-7.172A7.172,7.172,0,0,1,21.517,28.689Zm0-18.222A11.049,11.049,0,1,0,32.566,21.517,11.049,11.049,0,0,0,21.517,10.468Zm0-6.591c5.745,0,6.426.022,8.695.125a11.9,11.9,0,0,1,4,.741,6.668,6.668,0,0,1,2.474,1.61,6.662,6.662,0,0,1,1.61,2.474,11.911,11.911,0,0,1,.741,4c.1,2.269.125,2.95.125,8.695s-.022,6.426-.125,8.695a11.9,11.9,0,0,1-.741,4,7.127,7.127,0,0,1-4.084,4.084,11.911,11.911,0,0,1-4,.741c-2.269.1-2.949.125-8.695.125s-6.426-.022-8.695-.125a11.9,11.9,0,0,1-4-.741,6.668,6.668,0,0,1-2.474-1.61,6.666,6.666,0,0,1-1.61-2.474,11.911,11.911,0,0,1-.741-4c-.1-2.269-.125-2.95-.125-8.695S3.9,15.092,4,12.823a11.9,11.9,0,0,1,.741-4,6.668,6.668,0,0,1,1.61-2.474,6.662,6.662,0,0,1,2.474-1.61,11.911,11.911,0,0,1,4-.741C15.091,3.9,15.772,3.877,21.517,3.877Zm0-3.877c-5.844,0-6.576.025-8.871.129a15.793,15.793,0,0,0-5.223,1A10.544,10.544,0,0,0,3.611,3.612,10.544,10.544,0,0,0,1.13,7.423a15.8,15.8,0,0,0-1,5.223C.025,14.941,0,15.674,0,21.517s.025,6.577.129,8.871a15.8,15.8,0,0,0,1,5.223,10.544,10.544,0,0,0,2.482,3.811A10.548,10.548,0,0,0,7.423,41.9a15.8,15.8,0,0,0,5.223,1c2.295.1,3.028.129,8.871.129s6.576-.025,8.871-.129a15.8,15.8,0,0,0,5.223-1A11,11,0,0,0,41.9,35.612a15.8,15.8,0,0,0,1-5.223c.1-2.295.129-3.028.129-8.871s-.025-6.577-.129-8.871a15.8,15.8,0,0,0-1-5.223,10.548,10.548,0,0,0-2.482-3.811A10.548,10.548,0,0,0,35.611,1.13a15.8,15.8,0,0,0-5.223-1C28.093.025,27.361,0,21.517,0Z"/>
    </g>
  </g>
</svg>
