<svg xmlns="http://www.w3.org/2000/svg" viewBox="-144.134 -8217.93 223.255 121.93">
  <defs>
    <style>
      .cls-1, .cls-2, .cls-3 {
        fill: #fff;
      }

      .cls-2 {
        font-size: 25px;
        font-family: Helvetica-Bold, Helvetica;
        font-weight: 700;
      }

      .cls-3 {
        font-size: 14px;
        font-family: HelveticaNeue, Helvetica Neue;
      }
    </style>
  </defs>
  <g id="Group_80" data-name="Group 80" transform="translate(-288 -8250)">
    <g id="Group_79" data-name="Group 79">
      <g id="dbJF95.tif_2_" transform="translate(143.866 32.07)">
        <g id="Group_78" data-name="Group 78" transform="translate(0 0)">
          <path id="Path_14" data-name="Path 14" class="cls-1" d="M0,47.637A47.592,47.592,0,1,1,48.5,95.268,47.661,47.661,0,0,1,0,47.637ZM47.6.709A46.909,46.909,0,1,0,94.425,48.141,46.872,46.872,0,0,0,47.6.709Z" transform="translate(0.001 0.043)"/>
          <path id="Path_15" data-name="Path 15" class="cls-1" d="M258.936,224.255A35.072,35.072,0,1,1,223.887,189.1,35.1,35.1,0,0,1,258.936,224.255Zm-1.617,7.928c2.174-10.481.312-20.106-6.139-28.757-.007-.007-.033.007-.046.013.027.08.06.166.1.285H228.965v2.042H218.007V203.7H207.135q-5.24,0-10.474-.007a.543.543,0,0,0-.517.259c-.477.729-.968,1.445-1.458,2.168a1.663,1.663,0,0,0-.126.245c.113.007.186.013.265.013h40.9q4.276,0,8.552-.007h8.585c.093,0,.225.013.265.073.259.411.5.842.776,1.326H231.219v2.082H215.773v-2.088h-.5c-6.828,0-13.656.013-20.484-.02-.8-.007-1.286.159-1.564.941a19.329,19.329,0,0,1-.835,1.79h61.883c.245,0,.484-.013.729,0,.086.007.219.04.245.1.146.3.265.623.418.981H236.987v2.831h-5.6c-.04.212-.066.384-.106.6h.623l17.07-.02c2.519,0,5.038-.007,7.557-.007.1,0,.265.053.292.119.1.259.159.53.245.842H241.9v2.8h-.424c-4.972,0-9.944-.007-14.916.007a4.122,4.122,0,0,0-.948.232c0,.06.007.119.007.179a3.607,3.607,0,0,0,.769.186q9.029.01,18.065,0,6.543,0,13.093-.007a.811.811,0,0,1,.2.04c.073.53.139,1.054.212,1.618H243.43v2.234c-.126.007-.219.013-.318.013-4.886,0-9.765.013-14.651-.013a1.144,1.144,0,0,0-1.087.61h30.693v1.24h-11.84v2.261H227.666c-.013.206-.027.378-.046.59h30.315c-.066.471-.126.9-.186,1.366h-10.1v2.241H225.664c.232.265.345.61.789.61q9.218-.02,18.429-.02,6.046,0,12.1-.007A2.8,2.8,0,0,1,257.318,232.183ZM219.128,199.23c-.086-.007-.139-.02-.192-.02q-9.2,0-18.389.007a.584.584,0,0,0-.371.152c-.868.908-1.724,1.83-2.585,2.751a1.145,1.145,0,0,0-.119.212h52.855c-.066-.086-.119-.166-.186-.239-.8-.855-1.6-1.71-2.393-2.565a.927.927,0,0,0-.769-.338c-6.218.027-12.436.013-18.655.013h-.484v2.5h-8.7C219.128,200.86,219.128,200.045,219.128,199.23Zm4.011,45.284a1.722,1.722,0,0,1,.835-2.155c.312-.225.65-.418.961-.65a17.269,17.269,0,0,0,1.7-1.313,1.659,1.659,0,0,0,.318-2.174,6.656,6.656,0,0,0-2.314-2.406c-.477-.331-1.008-.59-1.485-.928a1.149,1.149,0,0,1-.093-1.83c.358-.331.723-.65,1.087-.968a18.845,18.845,0,0,0,2.619-2.473,3.274,3.274,0,0,0,.67-1.412,2.4,2.4,0,0,0-.663-2.393,18.755,18.755,0,0,0-3.852-2.837,3.445,3.445,0,0,1-.782-.6,1.012,1.012,0,0,1,.172-1.7,13.809,13.809,0,0,1,1.273-.769,54.369,54.369,0,0,1,5.264-2.473,3.614,3.614,0,0,0,2.373-4.031,2.994,2.994,0,0,0-2.095-2.612,1.993,1.993,0,0,0-2.082.345c-.384.345-.345.736.126.948a9.577,9.577,0,0,0,1.525.51.838.838,0,0,1,.65.491,2.287,2.287,0,0,1-.63,2.493c-.67.418-1.346.849-2.048,1.2-1.5.756-3.049,1.432-4.554,2.2a10.346,10.346,0,0,0-1.916,1.273,1.374,1.374,0,0,0-.292,1.8,2.448,2.448,0,0,0,.524.756c.723.63,1.452,1.26,2.221,1.823.729.53,1.525.974,2.274,1.478a1.534,1.534,0,0,1,.623,2.042,3.656,3.656,0,0,1-1.3,1.637,15.2,15.2,0,0,0-3.109,3.01,1.4,1.4,0,0,0-.033,1.856,4.027,4.027,0,0,0,.55.617,8.942,8.942,0,0,0,2.466,1.531,3,3,0,0,1,1.332,1.153,1.8,1.8,0,0,1,.292,1.352,2.493,2.493,0,0,1-1.286,1.743,4.673,4.673,0,0,0-1.75,1.584A1.329,1.329,0,0,0,223.138,244.514Zm-3.308-48.93a1.139,1.139,0,0,0-.139-.027q-7.289,0-14.578.007a.732.732,0,0,0-.4.133c-.464.318-.928.643-1.379.974-.345.252-.676.53-1.061.829h43.11a.844.844,0,0,0-.08-.119c-.789-.583-1.578-1.167-2.38-1.737a.591.591,0,0,0-.338-.093q-4.872-.01-9.745-.013c-1.79,0-3.58.007-5.37-.007-.272,0-.371.08-.351.358.02.338.007.676.007,1.028h-7.312C219.83,196.459,219.83,196.034,219.83,195.583Zm-29.042,19.37h25.933c-.027-.212-.046-.391-.08-.6H210v-2.764a2.528,2.528,0,0,0-.285-.027q-8.751,0-17.5-.007a.346.346,0,0,0-.385.272c-.126.378-.285.742-.411,1.114C191.212,213.6,191.013,214.258,190.788,214.954Zm63.773,24.7H227.646a.9.9,0,0,0-.232.007.353.353,0,0,0-.212.119,4.358,4.358,0,0,1-1.7,1.717c-.265.179-.537.351-.8.53a.618.618,0,0,0,.312.08q13.722,0,27.445.013a1.046,1.046,0,0,0,1.12-.656C253.865,240.867,254.209,240.3,254.561,239.654Zm-33.842.04H193.181c.411.736.8,1.405,1.167,2.095a.543.543,0,0,0,.57.318q13.752-.01,27.5-.007c.086,0,.166-.007.338-.02C221.852,241.418,220.937,240.867,220.719,239.694Zm-12.6,15.048c.113.08.146.106.179.126a33.033,33.033,0,0,0,5.038,2.082,1.522,1.522,0,0,0,.457.06h20.12a1.517,1.517,0,0,0,.55-.08c1.293-.5,2.585-1,3.871-1.525.418-.172.809-.4,1.213-.6-.007-.02-.02-.046-.027-.066ZM189.86,219.309c.179.007.278.02.371.02q15.343,0,30.68-.007a3.612,3.612,0,0,0,.776-.2,2.092,2.092,0,0,0-1.3-.411c-4.992.013-9.984.007-14.975.007-.1,0-.192-.013-.331-.02v-2.758H190.509C190.3,217.049,190.085,218.156,189.86,219.309Zm13.669,1.671h-13.2c-.623,0-.623,0-.676.61-.007.066-.02.133-.027.2-.04.67-.073,1.332-.113,2.015H221.2a1.387,1.387,0,0,0-1.22-.59c-5.336.02-10.666.013-16,.013h-.444Zm16.964,6.318H200.725V225.09h-11.2c.073.955.139,1.869.206,2.8h30.687C220.44,227.7,220.46,227.53,220.493,227.3Zm-30.561,2c.007.093.007.179.02.265.126.7.252,1.385.384,2.082.093.477.093.477.583.477q15.085,0,30.163.013c.491,0,.7-.245.955-.61H199.346v-2.227Zm35.711,7.239a2.54,2.54,0,0,0,.583.152q9.158,0,18.323-.007h10.176c.378,0,.842.119,1.1-.053s.3-.656.438-1c.02-.053.04-.1.06-.152.172-.53.345-1.061.524-1.617h-9.195v2.241h-.51q-10.292,0-20.577-.007A1.14,1.14,0,0,0,225.644,236.532Zm-2.672-.046v-.179a3.145,3.145,0,0,0-.782-.219q-11.2-.01-22.4.013h-.451V233.86h-8.452c.292.855.57,1.657.835,2.473a.458.458,0,0,0,.524.358q15.065-.01,30.123-.013A1.934,1.934,0,0,0,222.973,236.486Zm19.682,10.852c-.537-1.14-1.339-1.545-2.307-1.2a2.06,2.06,0,0,0-1.253,2.254c.013.007.02.013.033.013,2.99,0,5.98.007,8.976,0a.425.425,0,0,0,.278-.133c.6-.65,1.2-1.293,1.783-1.956.345-.391.663-.815,1.028-1.273h-8.525a2.848,2.848,0,0,1,1.485,1.929C243.649,247.092,243.165,247.212,242.655,247.338Zm-46.04-2.307a.942.942,0,0,0,.007.1c.915,1.061,1.83,2.115,2.758,3.169a.525.525,0,0,0,.351.119c1.366.007,2.738.007,4.1,0,.093,0,.192-.013.272-.02v-3.361C201.593,245.031,199.114,245.031,196.615,245.031Zm26.815-26.9c-.358-.159-.663-.278-.955-.431-.981-.5-1.969-.981-2.917-1.531a2.194,2.194,0,0,1-.895-2.44c.08-.431.3-.583.736-.683a10.6,10.6,0,0,0,1.346-.431c.252-.1.583-.245.517-.557a1.154,1.154,0,0,0-.477-.656,2.127,2.127,0,0,0-2.095-.08,3.371,3.371,0,0,0-1.8,3.878A3.655,3.655,0,0,0,219,217.765c.882.431,1.79.789,2.691,1.173a.233.233,0,0,0,.186.02C222.376,218.693,222.88,218.428,223.43,218.129Zm.424,28.015h-2.28v-1.107H219.4a2.3,2.3,0,0,1,1.18,2.035h-1.545a1.173,1.173,0,0,0-.729-.968,2.234,2.234,0,0,0-1.525.046.64.64,0,0,0-.477.61.62.62,0,0,0,.451.6c.378.146.776.252,1.16.378l1.724.557a1.692,1.692,0,0,0,.5.119c1.134.013,2.274.007,3.407.007.093,0,.192-.013.3-.02Zm-5.118-31.774c.02.617.02.61.55.61H223.5V218.1a6.437,6.437,0,0,1,.782-.358.672.672,0,0,0,.537-.822,7.1,7.1,0,0,1-.007-.994v-.935h3.825c.524,0,.544-.013.63-.61h-4.455v-.4c0-.451.007-.908-.013-1.359a.7.7,0,0,0-.61-.676.662.662,0,0,0-.656.583,1.849,1.849,0,0,0-.046.424c-.007.464,0,.921,0,1.425Zm5.018,5.575c.192.106.318.166.438.239.53.312,1.074.61,1.591.948a.963.963,0,0,1,.318,1.478,3.81,3.81,0,0,1-.8.723,7.905,7.905,0,0,1-.8.457l1.352,1.008a8.36,8.36,0,0,0,2.121-1.942,1.544,1.544,0,0,0-.312-2.353,20.528,20.528,0,0,0-2.168-1.319.3.3,0,0,0-.239.02C224.776,219.422,224.305,219.667,223.755,219.946Zm.5,5.893c-.464-.3-.888-.577-1.319-.835a.27.27,0,0,0-.252.046,21.818,21.818,0,0,0-1.618,1.511,1.939,1.939,0,0,0-.457.961c-.252,1.624.7,2.685,1.783,3.692.212-.2.411-.384.617-.57s.4-.358.563-.5a14.041,14.041,0,0,1-.895-1.233,1.639,1.639,0,0,1,.6-2.446C223.582,226.263,223.9,226.065,224.252,225.839Zm-12.39,19.185a3.9,3.9,0,0,1-.563-.007.924.924,0,0,0-.862.358c-.689.742-1.405,1.458-2.1,2.194-.1.1-.219.3-.179.385.106.219.186.484.55.477.961-.02,1.916-.007,2.877-.007.093,0,.192-.013.292-.02C211.862,247.265,211.862,246.164,211.862,245.024Zm16.825.02H227.7v1.107h-2.267v2.241h3.255Zm-4.8-12.569c.4.365.789.7,1.153,1.041a1.137,1.137,0,0,1,.007,1.7c-.139.133-.3.245-.471.391.345.259.676.5,1.008.749a4.65,4.65,0,0,0,1.458-1.366,1.367,1.367,0,0,0,.02-1.558,5.229,5.229,0,0,0-.537-.676c-.424-.471-.862-.928-1.313-1.412C224.749,231.746,224.332,232.1,223.887,232.475Zm-.033,17.766h-2.923a6.67,6.67,0,0,1-.517,1.319,6.254,6.254,0,0,1-.948.928h4.389Zm1.558,2.241h3.281v-2.254c-1.061,0-2.1,0-3.142.007-.046,0-.126.119-.126.179C225.406,251.1,225.412,251.779,225.412,252.482Zm-1.087-15.419c-.4-.206-.742-.378-1.094-.544a.235.235,0,0,0-.2.027,5.855,5.855,0,0,0-2.009,2.32,1.609,1.609,0,0,0,.152,1.657,6.264,6.264,0,0,0,1.8,1.518c.212-.206.411-.385.61-.577a2.179,2.179,0,0,1-1.233-2.406C222.548,238.024,223.37,237.5,224.325,237.062Zm-.842,2.632h-1.034a2.339,2.339,0,0,0,.65,1.293c.378.4.6.4,1.061.113.205-.133.411-.259.616-.391a2.048,2.048,0,0,0,.749-1.021c-.259-.013-.471-.027-.7-.04,0-.65-.013-1.266.007-1.883a.546.546,0,0,0-.358-.61c-.212.093-.418.179-.617.272a.533.533,0,0,0-.371.583C223.5,238.547,223.483,239.084,223.483,239.694Zm13.948,8.711a3.78,3.78,0,0,1,1.956-3.361h-3.2V248.4Zm-31.707,1.816v2.267h3.334c-.444-.749-.855-1.458-1.279-2.161a.262.262,0,0,0-.192-.1C206.976,250.221,206.36,250.221,205.723,250.221Zm25.377-5.191c.252.968.5,1.9.736,2.837.139.55.139.537.7.55.252.007.365-.066.424-.318.212-.875.444-1.743.67-2.619.04-.146.066-.285.106-.451Zm-7.637-17.11c.007.113.013.2.013.285,0,.444-.013.882.013,1.326a.753.753,0,0,0,.186.411c.027.033.232-.06.331-.126.192-.133.365-.285.544-.424a.675.675,0,0,0,.265-.636c-.02-.272-.007-.544-.007-.849.245,0,.491.073.623-.02s.133-.345.212-.583h-.835c0-.345.007-.656,0-.961-.007-.179-.338-.457-.477-.384a3.108,3.108,0,0,0-.789.53c-.106.106-.046.378-.06.57-.007.073-.013.146-.02.252h-.5c-.411,0-.51.126-.418.6C222.84,227.921,223.145,227.921,223.463,227.921ZM215.475,248.4a2.066,2.066,0,0,1,.444-3.354h-2.466V248.4C214.116,248.4,214.759,248.4,215.475,248.4Zm24.071,4.1a3.655,3.655,0,0,1-1.883-2.128.251.251,0,0,0-.186-.139c-.424-.013-.849-.007-1.286-.007V252.5Zm-33.829-4.256c1.021-1.1,1.969-2.135,2.957-3.2h-2.957Zm19.1-25.058c0-.689-.027-1.352.007-2.009.02-.378-.066-.63-.444-.756a4.075,4.075,0,0,1-.583-.3c-.232-.133-.318-.053-.318.2.007.875,0,1.743.007,2.619a.369.369,0,0,0,.113.278,6.307,6.307,0,0,0,.663.431.239.239,0,0,0,.212.007c.212-.106.411-.239.67-.391C225,223.227,224.922,223.214,224.816,223.187ZM216.058,252.5a5.732,5.732,0,0,1-.955-.882,7.175,7.175,0,0,1-.53-1.266.271.271,0,0,0-.2-.119,6.681,6.681,0,0,0-.729,0c-.073.007-.2.093-.2.146-.013.7-.007,1.405-.007,2.121Zm-4.2-2.247h-2.241c.418.643.809,1.24,1.2,1.836.312.477.451.524,1.041.365Zm34.366.073-.04-.1c-.557,0-1.12.013-1.677-.007a.371.371,0,0,0-.424.3,2.924,2.924,0,0,1-1.618,1.9.236.236,0,0,0-.066.073,1.753,1.753,0,0,0,1.684-.471c.133-.126.3-.219.451-.338C245.094,251.222,245.664,250.771,246.228,250.321Zm-22.413-17.726a.5.5,0,0,0-.338.557,4.826,4.826,0,0,1,0,.928c-.093.63.066,1.094.716,1.286.126.04.292.093.378.04a.562.562,0,0,0,.232-.378c.027-.438.02-.882.007-1.326a.443.443,0,0,0-.086-.3C224.431,233.125,224.119,232.866,223.815,232.594Zm-19.7,17.647h-2.6a.356.356,0,0,0-.033.073c.855.67,1.717,1.339,2.638,2.062C204.119,251.6,204.119,250.937,204.119,250.241Zm12.032,0a1.608,1.608,0,0,0,2.095,1.087c.643-.126,1.034-.557.955-1.107h-2.864A.679.679,0,0,0,216.151,250.241Zm15.506,2.267c-.186-.742-.351-1.439-.524-2.121-.02-.066-.106-.152-.166-.152-.259-.02-.517-.007-.776-.007v2.287h1.147C231.418,252.508,231.5,252.508,231.657,252.508Zm7.65-2.261a1.732,1.732,0,0,0,1.671,1.127,1.581,1.581,0,0,0,1.492-1.127ZM234.68,252.5v-2.234c-.04-.013-.06-.033-.08-.033-.815-.053-.815-.06-1.021.723-.133.5-.252,1.014-.384,1.538C233.719,252.5,234.189,252.5,234.68,252.5Zm-9.692-7.67a1.126,1.126,0,0,0,.6-.955,2.433,2.433,0,0,0-1.074-1.743c-.225.166-.431.318-.663.484C224.643,243.174,225.306,243.745,224.988,244.825Zm5.648,3.573c-.152-.59-.285-1.127-.424-1.671-.007,0-.02.007-.027.007v1.657C230.338,248.4,230.464,248.4,230.636,248.4Zm4.037-1.591c-.013,0-.033-.007-.046-.007-.133.53-.265,1.061-.4,1.6h.444Z" transform="translate(-176.277 -176.562)"/>
          <path id="Path_16" data-name="Path 16" class="cls-1" d="M57.785,672.056c0-.676-.007-1.306.013-1.929,0-.066.133-.159.219-.179.875-.225,1.75-.437,2.625-.656a15.661,15.661,0,0,0,1.637-.471c-.3-.086-.6-.179-.9-.265-1.094-.3-2.181-.617-3.281-.908-.206-.053-.292-.133-.285-.351.013-.583.007-1.167.007-1.8,2.307.046,4.534.093,6.788.133v1.226h-5.1c.431.119.782.219,1.134.312,1.233.331,2.466.67,3.706.994.192.053.278.139.252.345a2.861,2.861,0,0,0-.02.63c.053.385-.152.471-.471.537-1.472.325-2.943.67-4.415,1.008a2.148,2.148,0,0,0-.272.086c.007.04.007.08.013.119h4.627c.491,0,.491,0,.484.484v.8C62.286,672.129,60.039,672.1,57.785,672.056Z" transform="translate(-53.953 -621.38)"/>
          <path id="Path_17" data-name="Path 17" class="cls-1" d="M1150.685,1016.918l-2.333-1.578c.258-.378.5-.742.769-1.14,1.87,1.266,3.732,2.519,5.628,3.8-.265.384-.517.769-.776,1.147-.418.61-.822,1.226-1.26,1.823a1.922,1.922,0,0,1-1.187.888,1.9,1.9,0,0,1-2.2-2.433c.033-.106.073-.206.126-.365-1.226.49-2.453.172-3.752.219.325-.484.6-.9.888-1.313.033-.046.159-.046.239-.046.828-.013,1.657-.033,2.479-.02A1.468,1.468,0,0,0,1150.685,1016.918Zm.9.6c-.384.6-.756,1.16-1.094,1.744a.751.751,0,0,0,.279,1.041.708.708,0,0,0,1.034-.08c.438-.544.815-1.134,1.233-1.717C1152.541,1018.164,1152.084,1017.859,1151.587,1017.521Z" transform="translate(-1069.749 -946.964)"/>
          <path id="Path_18" data-name="Path 18" class="cls-1" d="M1028.647,163.778c-.418-.205-.8-.4-1.173-.583a.224.224,0,0,1-.027-.066,1.61,1.61,0,0,0-.948-1.962,1.759,1.759,0,0,0-2.1.331,3.659,3.659,0,0,0-1.054,1.618,1.842,1.842,0,0,0,1.14,2.28c.06.027.126.046.186.066.888.3.921.285,1.485-.524-.206-.159-.418-.318-.623-.477s-.4-.3-.61-.471c.232-.3.451-.6.689-.908.8.6,1.564,1.18,2.353,1.77-.517.689-1.008,1.359-1.525,2.022a.439.439,0,0,1-.3.152,4.2,4.2,0,0,1-4.143-2.963,3.9,3.9,0,0,1,3.6-4.369,3.7,3.7,0,0,1,3.255,2.5A2.306,2.306,0,0,1,1028.647,163.778Z" transform="translate(-954.181 -149.105)"/>
          <path id="Path_19" data-name="Path 19" class="cls-1" d="M612.274,51.682a3.078,3.078,0,0,1-3.209-2.917,4.21,4.21,0,0,1,.232-2.307,3,3,0,0,1,2.837-1.823,3.106,3.106,0,0,1,3.427,2.963,4.12,4.12,0,0,1-.239,2.267A3.078,3.078,0,0,1,612.274,51.682Zm-1.916-3.653a12.274,12.274,0,0,0,.365,1.392,1.79,1.79,0,0,0,3.275.04,3.24,3.24,0,0,0-.026-2.453,1.805,1.805,0,0,0-3.063-.6A2.553,2.553,0,0,0,610.358,48.029Z" transform="translate(-568.634 -41.669)"/>
          <path id="Path_20" data-name="Path 20" class="cls-1" d="M90.5,442.66c.265-.67.517-1.319.782-1.956.139-.338.285-.67.444-.994a2.373,2.373,0,0,1,2.373-1.425,4.881,4.881,0,0,1,3.056,1.18A2.329,2.329,0,0,1,98,442.043c-.325,1.067-.776,2.095-1.18,3.169Zm1.564-.855c1.425.577,2.8,1.127,4.2,1.7.2-.57.4-1.094.57-1.624a1.057,1.057,0,0,0-.384-1.213,4.775,4.775,0,0,0-2.367-1.021,1.245,1.245,0,0,0-1.346.65C92.489,440.764,92.3,441.274,92.064,441.8Z" transform="translate(-84.501 -409.226)"/>
          <path id="Path_21" data-name="Path 21" class="cls-1" d="M179.9,1045.639c.524.053,1,.106,1.485.133a.666.666,0,0,0,.345-.166c.444-.338.882-.689,1.352-1.061.285.358.557.7.855,1.081l-5.35,4.19c-.285-.365-.557-.716-.849-1.087.762-.6,1.511-1.193,2.333-1.836-.444-.046-.8-.093-1.16-.126-.888-.073-1.783-.139-2.672-.212a.431.431,0,0,1-.285-.119c-.338-.418-.663-.849-1.054-1.346l3.659.385c.537-1.551,1.061-3.083,1.611-4.674.365.471.7.888,1.021,1.319.046.066.013.212-.027.3q-.557,1.432-1.127,2.864C179.991,1045.38,179.958,1045.487,179.9,1045.639Z" transform="translate(-163.306 -971.8)"/>
          <path id="Path_22" data-name="Path 22" class="cls-1" d="M1106.712,233.039c-.292.265-.557.5-.855.769-.815-.908-1.617-1.8-2.439-2.7-.378.331-.736.656-1.12.994.756.842,1.5,1.677,2.267,2.532-.292.265-.557.5-.855.762-.762-.849-1.5-1.671-2.274-2.519-.451.4-.888.8-1.359,1.226.842.941,1.671,1.863,2.526,2.817l-.848.769c-1.154-1.279-2.294-2.552-3.454-3.838,1.7-1.525,3.361-3.03,5.045-4.548C1104.472,230.546,1105.579,231.779,1106.712,233.039Z" transform="translate(-1025.491 -214.096)"/>
          <path id="Path_23" data-name="Path 23" class="cls-1" d="M920.737,96.639c-.172.358-.338.689-.5,1.034-1.545-.756-3.069-1.5-4.634-2.261.994-2.035,1.975-4.064,2.976-6.112,1.518.742,3,1.472,4.515,2.208-.172.358-.325.67-.5,1.028-1.094-.53-2.181-1.061-3.281-1.591-.219.457-.431.888-.65,1.352,1.014.5,2.009.988,3.036,1.492-.166.351-.318.676-.49,1.034-1.014-.491-2.015-.974-3.056-1.485-.265.544-.524,1.067-.809,1.644C918.464,95.525,919.577,96.075,920.737,96.639Z" transform="translate(-854.903 -83.377)"/>
          <path id="Path_24" data-name="Path 24" class="cls-1" d="M380.7,1193.193c-.205.351-.384.663-.577.994-.981-.57-1.942-1.12-2.937-1.69-.312.537-.61,1.047-.921,1.584,1.1.636,2.174,1.26,3.268,1.9-.192.338-.371.65-.57.994-1.5-.868-2.97-1.717-4.468-2.585,1.134-1.969,2.254-3.911,3.394-5.887,1.452.835,2.884,1.671,4.349,2.512-.192.338-.371.65-.57.994-1.047-.6-2.088-1.2-3.162-1.823-.245.424-.491.835-.756,1.293C378.743,1192.053,379.71,1192.617,380.7,1193.193Z" transform="translate(-349.674 -1109.709)"/>
          <path id="Path_25" data-name="Path 25" class="cls-1" d="M67.9,551.616l1.452.285c.106.02.212.033.351.053.126-.63.245-1.246.365-1.856s.239-1.207.358-1.843c.365.073.716.146,1.12.225-.325,1.684-.65,3.348-.981,5.058-2.227-.431-4.435-.862-6.662-1.3.318-1.657.636-3.275.955-4.939.371.073.729.146,1.12.225l-.7,3.58c.491.093.968.179,1.485.278.219-1.12.431-2.208.643-3.321.384.073.742.139,1.127.206C68.322,549.395,68.116,550.482,67.9,551.616Z" transform="translate(-59.664 -511.016)"/>
          <path id="Path_26" data-name="Path 26" class="cls-1" d="M116.61,934.023c-.219-.385-.424-.742-.643-1.134.093-.08.179-.159.265-.239a1.565,1.565,0,0,0-.411-2.479.706.706,0,0,0-1.054.7c.073.636.159,1.266.252,1.9a2.01,2.01,0,0,1-.915,2.108,1.767,1.767,0,0,1-2.062-.212,3.618,3.618,0,0,1-1.167-2.579,1.909,1.909,0,0,1,1.167-1.83c.2.4.4.8.583,1.187-.007.033-.007.06-.02.066a1.35,1.35,0,0,0,.066,2.128c.192.166.431.318.65.146a.839.839,0,0,0,.312-.557c0-.457-.113-.915-.139-1.379a7.2,7.2,0,0,1-.013-1.73,1.982,1.982,0,0,1,3.136-.948,3.568,3.568,0,0,1,1.306,3.043A2.191,2.191,0,0,1,116.61,934.023Z" transform="translate(-103.524 -867.152)"/>
          <path id="Path_27" data-name="Path 27" class="cls-1" d="M272.228,218.118c-.544-1.432-1.067-2.8-1.584-4.17-.292-.776-.577-1.551-.882-2.314-.093-.232-.119-.4.126-.557a2.478,2.478,0,0,0,.4-.351c.431-.4.431-.4.935-.159q2.943,1.442,5.88,2.89c.046.027.093.053.179.106-.345.312-.67.623-1.014.9-.06.046-.225,0-.318-.046-.4-.2-.8-.411-1.22-.623-.636.57-1.273,1.134-1.9,1.717a.363.363,0,0,0-.046.312c.133.371.3.736.438,1.107.033.086.046.239-.007.285C272.91,217.515,272.586,217.793,272.228,218.118Zm.007-3.646c.471-.424.9-.809,1.379-1.24-.789-.411-1.531-.8-2.274-1.18-.02.02-.04.033-.06.053C271.591,212.874,271.9,213.643,272.234,214.472Z" transform="translate(-251.816 -196.451)"/>
          <path id="Path_28" data-name="Path 28" class="cls-1" d="M1229.607,486.372c-.146-.411-.3-.822-.424-1.24-.02-.073.06-.206.126-.265.3-.265.616-.5.9-.776a.413.413,0,0,0,.1-.358c-.225-.723-.471-1.445-.736-2.154a.4.4,0,0,0-.3-.212c-.4-.026-.8-.007-1.193-.026-.093-.007-.232-.06-.259-.126-.153-.385-.279-.782-.424-1.213a2.908,2.908,0,0,1,.312-.02c2.208.086,4.408.172,6.616.252a.417.417,0,0,1,.464.358c.073.285.2.563.278.849a.345.345,0,0,1-.066.3q-2.665,2.317-5.337,4.607A.2.2,0,0,0,1229.607,486.372Zm1.737-3.222c.689-.57,1.333-1.114,1.982-1.651-.013-.026-.027-.046-.04-.073h-2.532C1230.953,482,1231.138,482.553,1231.344,483.15Z" transform="translate(-1146.033 -448.158)"/>
          <path id="Path_29" data-name="Path 29" class="cls-1" d="M1226.531,930.709l-.524,1.259c-.3-.126-.577-.239-.855-.358-1.114-.477-2.221-.961-3.334-1.445-1.452-.63-1.79-1.724-1.2-3.175a4.884,4.884,0,0,1,.875-1.419,1.729,1.729,0,0,1,1.956-.451c1.558.57,3.089,1.22,4.673,1.85-.192.464-.358.862-.544,1.3-.669-.285-1.319-.557-1.962-.829-.689-.292-1.385-.57-2.075-.868-1.074-.471-1.671.205-1.889,1.054a.966.966,0,0,0,.59,1.22c.928.438,1.876.829,2.811,1.24C1225.523,930.285,1226,930.484,1226.531,930.709Z" transform="translate(-1139.443 -863.672)"/>
          <path id="Path_30" data-name="Path 30" class="cls-1" d="M1270.921,820.075c-.126.557-.239,1.074-.365,1.584-.139.563-.272,1.134-.431,1.7a1.912,1.912,0,0,1-2.539,1.286,2,2,0,0,1-1.439-2.6c.106-.517.212-1.034.325-1.578-.829-.192-1.637-.384-2.473-.583.086-.371.179-.709.232-1.061.04-.252.153-.265.365-.219,1.153.278,2.313.544,3.474.809C1269.012,819.638,1269.94,819.85,1270.921,820.075Zm-3.348.643c-.093.6-.212,1.16-.265,1.73a.912.912,0,0,0,1.724.371c.192-.53.318-1.087.484-1.651C1268.846,821.01,1268.243,820.871,1267.573,820.719Z" transform="translate(-1180.207 -764.315)"/>
          <path id="Path_31" data-name="Path 31" class="cls-1" d="M1006.8,1177.33a1.982,1.982,0,0,1,3.547-.5,2.279,2.279,0,0,1,.424,2.32,2.146,2.146,0,0,1-1.816,1.359,1.933,1.933,0,0,1-1.492-.4,5.939,5.939,0,0,1-2.307-3.7,2.262,2.262,0,0,1,1.313-2.281,1.823,1.823,0,0,1,2.241.517c-.318.265-.63.53-.948.8-.259-.225-.5-.424-.842-.3a.8.8,0,0,0-.563.9A11.776,11.776,0,0,0,1006.8,1177.33Zm2.128,2a.772.772,0,0,0,.789-.617,1.809,1.809,0,0,0-.975-1.624.8.8,0,0,0-1.114.557A1.55,1.55,0,0,0,1008.931,1179.333Z" transform="translate(-938.503 -1096.107)"/>
          <path id="Path_32" data-name="Path 32" class="cls-1" d="M495.78,72.441h1.134a1.592,1.592,0,0,1,.186.02,2.539,2.539,0,0,1-1.558,2.751,3,3,0,0,1-4.183-1.644,4.161,4.161,0,0,1-.378-2.764,2.964,2.964,0,0,1,2.459-2.261,2.5,2.5,0,0,1,2.864,1.193c-.384.225-.769.457-1.22.716a1.079,1.079,0,0,0-.073-.152,1.369,1.369,0,0,0-1.538-.544A1.528,1.528,0,0,0,492.28,71.1a4.01,4.01,0,0,0,.789,2.638,1.465,1.465,0,0,0,1.717.5,1.49,1.49,0,0,0,.988-1.392A4.03,4.03,0,0,0,495.78,72.441Z" transform="translate(-458.338 -63.919)"/>
          <path id="Path_33" data-name="Path 33" class="cls-1" d="M186.8,292.354c.378-.272.723-.53,1.074-.782a2.552,2.552,0,0,1,.484,2.957,3.06,3.06,0,0,1-4.607,1.266,3.974,3.974,0,0,1-1.975-2.579c-.325-1.677,1.193-3.692,2.917-3.58a7.3,7.3,0,0,1,.955.186c-.2.457-.371.862-.544,1.266-.073-.007-.119-.007-.159-.013a1.409,1.409,0,0,0-1.717.636,1.547,1.547,0,0,0,.106,1.85,4.34,4.34,0,0,0,1.863,1.385,1.5,1.5,0,0,0,1.81-.491,1.451,1.451,0,0,0,.013-1.783C186.956,292.58,186.889,292.48,186.8,292.354Z" transform="translate(-169.687 -270.429)"/>
          <path id="Path_34" data-name="Path 34" class="cls-1" d="M935.3,1223.059a1.987,1.987,0,0,1-1.16,1.975,1.859,1.859,0,0,1-2.28-.391,6.716,6.716,0,0,1-1.856-3.938,1.8,1.8,0,0,1,1.047-1.9,1.821,1.821,0,0,1,2.261.272A6.955,6.955,0,0,1,935.3,1223.059Zm-1.266.252a1,1,0,0,0-.046-.239c-.312-.729-.6-1.465-.955-2.174a5.422,5.422,0,0,0-.742-1.041.552.552,0,0,0-.7-.113.58.58,0,0,0-.345.59,1.283,1.283,0,0,0,.053.424c.371.842.749,1.691,1.147,2.519a2.719,2.719,0,0,0,.484.623.6.6,0,0,0,.723.166A.686.686,0,0,0,934.033,1223.311Z" transform="translate(-868.338 -1137.752)"/>
          <path id="Path_35" data-name="Path 35" class="cls-1" d="M854.748,1254.932a1.99,1.99,0,0,1-2.241,2.227,2.041,2.041,0,0,1-1.657-1.226,7.475,7.475,0,0,1-.955-3.566,1.884,1.884,0,0,1,1.3-1.909,1.854,1.854,0,0,1,2.227.6,7.254,7.254,0,0,1,.782,1.405A6.231,6.231,0,0,1,854.748,1254.932Zm-1.266.259.08-.02c-.192-.7-.358-1.405-.59-2.088a8.132,8.132,0,0,0-.6-1.319.6.6,0,0,0-.729-.3.656.656,0,0,0-.477.676,1.51,1.51,0,0,0,.026.424c.152.623.278,1.246.484,1.849a8.367,8.367,0,0,0,.663,1.392.559.559,0,0,0,.7.219.6.6,0,0,0,.438-.6Z" transform="translate(-793.554 -1167.424)"/>
          <path id="Path_36" data-name="Path 36" class="cls-1" d="M626.547,1276.36c.08-.8.153-1.564.232-2.36.431.033.829.066,1.286.1-.2,2.267-.4,4.5-.6,6.768-.411-.033-.8-.066-1.187-.1.013-.219.02-.411.033-.557a5.835,5.835,0,0,1-1.127.5,1.818,1.818,0,0,1-2.029-1.067,3.294,3.294,0,0,1,.126-3,1.893,1.893,0,0,1,3.1-.438A1.009,1.009,0,0,0,626.547,1276.36Zm-.093,1.631c-.013,0-.027-.007-.04-.007-.02-.152-.02-.312-.053-.457a1.045,1.045,0,0,0-.948-.882,1.031,1.031,0,0,0-1.034.769,5.6,5.6,0,0,0-.119,1.372,1,1,0,0,0,1.949.3A9.691,9.691,0,0,0,626.454,1277.991Z" transform="translate(-581.568 -1189.541)"/>
          <path id="Path_37" data-name="Path 37" class="cls-1" d="M764.33,1271.3h-1.22a1.8,1.8,0,0,1,.736-1.83,2.684,2.684,0,0,1,2.214-.391,1.925,1.925,0,0,1,1.167,2.8,17.288,17.288,0,0,1-1.319,1.969c-.172.252-.351.49-.524.742.02.026.033.053.053.08l1.226-.179c.411-.06.829-.106,1.273-.166.053.411.106.789.159,1.187-1.5.212-2.977.424-4.481.636a2.9,2.9,0,0,1,.544-1.916c.5-.716,1.041-1.4,1.558-2.095a1.617,1.617,0,0,0,.411-1.279.8.8,0,0,0-.888-.742.856.856,0,0,0-.862.8A3.343,3.343,0,0,0,764.33,1271.3Z" transform="translate(-712.483 -1184.865)"/>
          <path id="Path_38" data-name="Path 38" class="cls-1" d="M482.012,1267.46c-.378-.06-.756-.119-1.16-.186-.007-.742-.57-.882-1.114-1a.588.588,0,0,0-.5.172c-.139.172.026.351.192.464.378.265.762.524,1.14.8.179.126.345.272.517.418a1.383,1.383,0,0,1-.391,2.333c-.908.451-3.295-.206-3.547-1.737-.027-.172-.027-.345-.046-.564.431.086.815.152,1.2.245.053.013.113.146.119.225a1.25,1.25,0,0,0,1.472.961.514.514,0,0,0,.3-.338.547.547,0,0,0-.212-.4c-.471-.365-.981-.676-1.445-1.048a1.34,1.34,0,0,1-.491-1.671,1.389,1.389,0,0,1,1.445-.835,2.948,2.948,0,0,1,2.347,1.153,3.261,3.261,0,0,1,.3.941A.449.449,0,0,0,482.012,1267.46Z" transform="translate(-445.472 -1181.403)"/>
          <path id="Path_39" data-name="Path 39" class="cls-1" d="M278.793,1144.451c.219-.67.424-1.339.663-2a.364.364,0,0,0-.166-.51,17.07,17.07,0,0,1-1.69-1.313h1.167c.318,0,.643-.02.961.007.265.02.351-.093.424-.331.2-.67.431-1.339.676-2.1.232.729.444,1.366.636,2,.086.292.206.451.563.431.67-.04,1.346-.013,2.128-.013-.186.146-.292.232-.411.318-.477.351-.961.709-1.445,1.047a.269.269,0,0,0-.119.378c.239.7.457,1.4.709,2.188-.636-.458-1.213-.842-1.757-1.28a.423.423,0,0,0-.623.007c-.544.411-1.1.809-1.651,1.213A.6.6,0,0,0,278.793,1144.451Z" transform="translate(-259.197 -1062.744)"/>
          <path id="Path_40" data-name="Path 40" class="cls-1" d="M69.1,849.385c.365-.093.709-.179,1.1-.285.172.636.345,1.26.53,1.922,1.81-.484,3.606-.961,5.443-1.452.119.444.239.868.358,1.326-1.816.491-3.606.968-5.443,1.465.166.643.331,1.266.5,1.936-.358.1-.709.2-1.1.3C70.028,852.852,69.571,851.135,69.1,849.385Z" transform="translate(-64.519 -792.809)"/>
          <path id="Path_41" data-name="Path 41" class="cls-1" d="M1279.108,727c.053-.7.1-1.326.146-2,.391.02.749.046,1.147.066-.126,1.8-.252,3.573-.378,5.376-.391-.027-.749-.046-1.147-.073.047-.67.1-1.313.146-2-1.883-.133-3.739-.265-5.622-.4.026-.457.053-.882.086-1.359C1275.362,726.743,1277.212,726.863,1279.108,727Z" transform="translate(-1188.984 -676.935)"/>
          <path id="Path_42" data-name="Path 42" class="cls-1" d="M1096.02,1127.551c.225-.7.418-1.3.623-1.9.179-.524.179-.517-.272-.842-.51-.365-1.014-.742-1.571-1.147a1.842,1.842,0,0,1,.252-.04c.663,0,1.326-.007,1.989.007a.3.3,0,0,0,.345-.258c.212-.7.444-1.379.7-2.168.166.5.3.908.444,1.326.086.259.179.524.252.789a.351.351,0,0,0,.411.311c.7-.02,1.412-.007,2.121-.007a1.141,1.141,0,0,0,.086.1.892.892,0,0,0-.2.08c-.537.391-1.067.789-1.6,1.167a.3.3,0,0,0-.139.4c.219.623.411,1.253.617,1.883.02.066.04.139.073.285-.716-.517-1.372-.994-2.042-1.478C1097.425,1126.536,1096.762,1127.014,1096.02,1127.551Z" transform="translate(-1022.224 -1046.871)"/>
          <path id="Path_43" data-name="Path 43" class="cls-1" d="M346.6,156.887c.955-.617,1.883-1.226,2.851-1.85.206.312.411.617.636.955-1.339.868-2.665,1.737-4.017,2.612-1.22-1.883-2.433-3.752-3.666-5.655.384-.252.749-.491,1.153-.749C344.568,153.758,345.569,155.309,346.6,156.887Z" transform="translate(-319.702 -142.107)"/>
          <path id="Path_44" data-name="Path 44" class="cls-1" d="M829.41,63.947c1.107.318,2.174.623,3.262.941-.106.378-.206.736-.312,1.107-1.478-.424-2.924-.849-4.375-1.26-.206-.06-.186-.172-.146-.325.385-1.332.762-2.665,1.147-4,.206-.729.418-1.458.63-2.214.451.133.868.252,1.319.378C830.437,60.368,829.927,62.138,829.41,63.947Z" transform="translate(-772.936 -54.339)"/>
          <path id="Path_45" data-name="Path 45" class="cls-1" d="M1189.577,362.811c.55.994,1.087,1.969,1.644,2.977-.325.179-.636.358-1,.563-.776-1.392-1.538-2.778-2.32-4.183,1.962-1.087,3.911-2.174,5.887-3.268.219.4.431.776.663,1.207Z" transform="translate(-1109.152 -335.105)"/>
          <path id="Path_46" data-name="Path 46" class="cls-1" d="M1269.749,577.9c.08.484.139.908.212,1.359-1.83.292-3.646.583-5.509.882.172,1.127.345,2.227.524,3.361-.391.06-.742.113-1.127.166-.252-1.578-.5-3.122-.749-4.713C1265.307,578.609,1267.508,578.258,1269.749,577.9Z" transform="translate(-1179.366 -539.587)"/>
          <path id="Path_47" data-name="Path 47" class="cls-1" d="M736.749,44.119c-.159,1.863-.318,3.692-.484,5.569,1.127.1,2.234.192,3.387.3-.033.371-.06.723-.093,1.14-1.578-.139-3.142-.272-4.76-.418.192-2.227.391-4.448.59-6.709C735.841,44.04,736.265,44.08,736.749,44.119Z" transform="translate(-686.089 -41.08)"/>
          <path id="Path_48" data-name="Path 48" class="cls-1" d="M571.927,1267.6c.3.073.557.139.855.212-.08.332-.152.65-.232.988-.285-.06-.55-.119-.855-.186-.119.51-.245,1.008-.358,1.511-.066.279-.119.557-.179.842-.1.438.013.59.457.61.086.007.172,0,.3,0-.033.3-.053.577-.1.855-.007.053-.086.139-.139.139a2.188,2.188,0,0,1-1.545-.338.75.75,0,0,1-.351-.742c.106-.663.232-1.319.365-1.975.079-.385.179-.769.278-1.173l-.577-.172c.08-.318.152-.636.239-.981.2.033.378.06.557.093.026-.046.053-.073.053-.106-.013-.7.4-1,1.034-1.094a4.287,4.287,0,0,0,.583-.179C572.179,1266.483,572.06,1267.014,571.927,1267.6Z" transform="translate(-532 -1181.978)"/>
          <path id="Path_49" data-name="Path 49" class="cls-1" d="M150.609,1015.18c-.239-.4-.464-.769-.709-1.18,1.936-1.167,3.858-2.32,5.814-3.5.232.391.464.769.709,1.18C154.487,1012.846,152.565,1014,150.609,1015.18Z" transform="translate(-139.963 -943.509)"/>
          <path id="Path_50" data-name="Path 50" class="cls-1" d="M138.87,377.4c1.989,1.107,3.944,2.188,5.933,3.295-.225.411-.438.789-.663,1.207-1.989-1.107-3.951-2.194-5.94-3.295C138.425,378.2,138.638,377.818,138.87,377.4Z" transform="translate(-129.038 -352.379)"/>
          <path id="Path_51" data-name="Path 51" class="cls-1" d="M1282.129,679.3c.02.444.04.875.066,1.366l-6.795.239v-1.366C1277.621,679.459,1279.855,679.38,1282.129,679.3Z" transform="translate(-1190.851 -634.265)"/>
          <path id="Path_52" data-name="Path 52" class="cls-1" d="M725.233,1359.56H724v-1.26h1.233Z" transform="translate(-676.005 -1268.253)"/>
        </g>
      </g>
      <text id="KIST_MEDICAL_COLLEGE" data-name="KIST
MEDICAL
COLLEGE" class="cls-2" transform="translate(246.121 56)"><tspan x="0" y="0">KIST</tspan><tspan x="0" y="30">MEDICAL</tspan><tspan x="0" y="60">COLLEGE</tspan></text>
    </g>
    <text id="Affiliated_with_Tribhuvan_University" data-name="Affiliated with Tribhuvan University" class="cls-3" transform="translate(151 151)"><tspan x="0" y="0">Affiliated with Tribhuvan University</tspan></text>
  </g>
</svg>
