<svg xmlns="http://www.w3.org/2000/svg" viewBox="1451.594 -4127.253 53.152 53.152">
  <defs>
    <style>
      .cls-1 {
        fill: #fff;
      }
    </style>
  </defs>
  <path id="if_chevron-circle-right_1608622" class="cls-1" d="M156.341,171.844l-15.71-15.71a2.173,2.173,0,0,1,0-3.114l15.71-15.71a2.173,2.173,0,0,1,3.114,0l3.53,3.53a2.173,2.173,0,0,1,0,3.114l-10.624,10.624L162.985,165.2a2.173,2.173,0,0,1,0,3.114l-3.53,3.53a2.173,2.173,0,0,1-3.114,0ZM128,154.576a26,26,0,0,0,3.564,13.34,26.457,26.457,0,0,0,9.672,9.672,26.746,26.746,0,0,0,26.68,0,26.457,26.457,0,0,0,9.672-9.672,26.746,26.746,0,0,0,0-26.68,26.457,26.457,0,0,0-9.672-9.672,26.746,26.746,0,0,0-26.68,0,26.457,26.457,0,0,0-9.672,9.672A26,26,0,0,0,128,154.576Z" transform="translate(1632.747 -3946.101) rotate(180)"/>
</svg>
