<?xml version="1.0" encoding="iso-8859-1"?>
<!-- Generator: Adobe Illustrator 22.0.0, SVG Export Plug-In . SVG Version: 6.00 Build 0)  -->
<svg version="1.1" id="Layer_1" xmlns="http://www.w3.org/2000/svg" xmlns:xlink="http://www.w3.org/1999/xlink" x="0px" y="0px"
	 viewBox="0 0 437.5 243.75" style="enable-background:new 0 0 437.5 243.75;" xml:space="preserve">
<g>
	<path style="fill:#FFFFFF;" d="M37.735,82.706v16.497h0.472c4.396-6.282,9.699-11.154,15.907-14.611
		c6.205-3.454,13.315-5.184,21.328-5.184c7.696,0,14.729,1.495,21.092,4.477c6.363,2.986,11.194,8.248,14.493,15.789
		c3.612-5.339,8.521-10.052,14.729-14.14c6.205-4.084,13.551-6.127,22.034-6.127c6.44,0,12.409,0.788,17.91,2.356
		c5.498,1.572,10.211,4.087,14.14,7.541c3.925,3.457,6.989,7.975,9.191,13.55c2.198,5.579,3.3,12.295,3.3,20.15v81.54h-33.464
		v-69.049c0-4.084-0.159-7.932-0.472-11.548c-0.317-3.612-1.178-6.753-2.593-9.427c-1.414-2.669-3.498-4.79-6.245-6.363
		c-2.751-1.569-6.481-2.357-11.194-2.357c-4.713,0-8.524,0.906-11.43,2.71c-2.909,1.808-5.184,4.165-6.834,7.07
		c-1.65,2.909-2.751,6.208-3.299,9.898c-0.553,3.694-0.825,7.424-0.825,11.194v67.871H82.511v-68.343
		c0-3.612-0.081-7.188-0.236-10.723c-0.158-3.535-0.824-6.793-2.003-9.78c-1.178-2.982-3.144-5.38-5.892-7.188
		c-2.751-1.804-6.797-2.71-12.136-2.71c-1.572,0-3.653,0.354-6.245,1.06c-2.593,0.707-5.108,2.044-7.541,4.007
		c-2.438,1.966-4.518,4.794-6.245,8.484c-1.731,3.693-2.593,8.524-2.593,14.493v70.699H6.156V82.706H37.735z"/>
	<path style="fill:#FFFFFF;" d="M198.456,120.177c0.471-7.854,2.434-14.376,5.892-19.56c3.453-5.184,7.854-9.346,13.197-12.49
		c5.339-3.14,11.349-5.38,18.027-6.716c6.676-1.333,13.393-2.003,20.15-2.003c6.127,0,12.331,0.434,18.617,1.296
		c6.282,0.865,12.019,2.555,17.203,5.067c5.186,2.515,9.428,6.009,12.728,10.487c3.297,4.477,4.948,10.41,4.948,17.793v63.393
		c0,5.502,0.312,10.764,0.942,15.789c0.627,5.03,1.728,8.801,3.3,11.312h-33.936c-0.63-1.885-1.14-3.807-1.531-5.774
		c-0.394-1.963-0.671-3.966-0.824-6.009c-5.344,5.501-11.629,9.349-18.854,11.548c-7.228,2.198-14.611,3.299-22.152,3.299
		c-5.815,0-11.235-0.707-16.261-2.121c-5.029-1.414-9.426-3.612-13.197-6.599c-3.771-2.982-6.717-6.753-8.837-11.312
		c-2.121-4.555-3.181-9.975-3.181-16.261c0-6.912,1.215-12.608,3.652-17.085c2.434-4.478,5.575-8.05,9.427-10.723
		c3.848-2.67,8.248-4.673,13.197-6.009c4.949-1.333,9.935-2.394,14.965-3.182c5.026-0.784,9.975-1.414,14.846-1.885
		c4.868-0.472,9.191-1.179,12.962-2.121c3.771-0.943,6.753-2.316,8.955-4.124c2.199-1.804,3.219-4.437,3.064-7.895
		c0-3.612-0.589-6.48-1.768-8.602c-1.179-2.121-2.751-3.77-4.713-4.949c-1.967-1.178-4.243-1.962-6.835-2.356
		c-2.592-0.39-5.383-0.589-8.366-0.589c-6.599,0-11.783,1.414-15.554,4.242s-5.972,7.541-6.598,14.14H198.456z M275.753,144.921
		c-1.414,1.259-3.182,2.239-5.303,2.946c-2.121,0.707-4.4,1.297-6.834,1.768c-2.438,0.472-4.989,0.865-7.659,1.178
		c-2.674,0.317-5.344,0.707-8.012,1.178c-2.515,0.472-4.989,1.101-7.424,1.885c-2.438,0.788-4.559,1.849-6.363,3.182
		c-1.809,1.336-3.262,3.026-4.361,5.067c-1.1,2.043-1.649,4.636-1.649,7.777c0,2.986,0.549,5.501,1.649,7.541
		c1.098,2.044,2.593,3.653,4.479,4.831c1.885,1.179,4.083,2.003,6.598,2.475c2.511,0.471,5.103,0.707,7.777,0.707
		c6.598,0,11.703-1.098,15.318-3.3c3.612-2.198,6.282-4.831,8.012-7.895c1.727-3.064,2.788-6.164,3.182-9.308
		c0.389-3.141,0.589-5.656,0.589-7.541V144.921z"/>
	<path style="fill:#FFFFFF;" d="M348.1,82.706v22.624h0.471c1.568-3.771,3.689-7.265,6.363-10.487
		c2.67-3.218,5.733-5.969,9.191-8.248c3.453-2.276,7.147-4.043,11.075-5.303c3.926-1.256,8.014-1.885,12.255-1.885
		c2.198,0,4.632,0.394,7.305,1.178v31.107c-1.572-0.313-3.457-0.589-5.655-0.824c-2.203-0.236-4.324-0.354-6.364-0.354
		c-6.127,0-11.311,1.024-15.554,3.064c-4.242,2.044-7.658,4.831-10.251,8.366c-2.592,3.535-4.44,7.659-5.538,12.372
		c-1.101,4.713-1.649,9.821-1.649,15.318v54.91h-33.465V82.706H348.1z"/>
	<path style="fill:#FFFFFF;" d="M397.661,63.853V36.281h33.464v27.573H397.661z M431.125,82.706v121.838h-33.464V82.706H431.125z"/>
</g>
</svg>
