<svg xmlns="http://www.w3.org/2000/svg" viewBox="1849.866 -8220.972 90.13 47.609">
  <defs>
    <style>
      .cls-1, .cls-2, .cls-3 {
        fill: #212177;
      }

      .cls-2 {
        font-size: 10px;
        font-family: Helvetica-Bold, Helvetica;
        font-weight: 700;
      }

      .cls-3 {
        font-size: 5.5px;
        font-family: HelveticaNeue, Helvetica Neue;
      }
    </style>
  </defs>
  <g id="Group_82" data-name="Group 82" transform="translate(1706 -8253)">
    <g id="Group_79" data-name="Group 79" transform="translate(143.866 32)">
      <g id="dbJF95.tif_2_" transform="translate(0 0.028)">
        <g id="Group_78" data-name="Group 78" transform="translate(0 0)">
          <path id="Path_14" data-name="Path 14" class="cls-1" d="M0,19.136A19.143,19.143,0,1,1,19.507,38.295,19.171,19.171,0,0,1,0,19.136ZM19.147.26A18.869,18.869,0,1,0,37.981,19.339,18.854,18.854,0,0,0,19.147.26Z" transform="translate(0.001 0.043)"/>
          <path id="Path_15" data-name="Path 15" class="cls-1" d="M217.006,203.241a14.107,14.107,0,1,1-14.1-14.14A14.117,14.117,0,0,1,217.006,203.241Zm-.651,3.189a13.815,13.815,0,0,0-2.469-11.567s-.013,0-.019.005c.011.032.024.067.04.115h-8.957v.821h-4.408v-.829H196.17q-2.108,0-4.213,0a.218.218,0,0,0-.208.1c-.192.293-.389.581-.587.872a.669.669,0,0,0-.051.1c.045,0,.075.005.107.005h16.452l3.44,0h3.453c.037,0,.091.005.107.029.1.165.2.339.312.533h-9.125v.837h-6.213v-.84h-.2c-2.746,0-5.493.005-8.239-.008-.323,0-.517.064-.629.379a7.776,7.776,0,0,1-.336.72h24.892c.1,0,.195-.005.293,0,.035,0,.088.016.1.04.059.123.107.251.168.395h-7.514v1.139h-2.251c-.016.085-.027.155-.043.24h.251L213,199.5l3.04,0c.04,0,.107.021.117.048.04.1.064.213.1.339h-6.1v1.125h-.171c-2,0-4,0-6,0a1.657,1.657,0,0,0-.381.093c0,.024,0,.048,0,.072a1.452,1.452,0,0,0,.309.075q3.632,0,7.266,0l5.266,0a.326.326,0,0,1,.08.016c.029.213.056.424.085.651h-5.842v.9c-.051,0-.088.005-.128.005-1.965,0-3.928.005-5.893-.005a.46.46,0,0,0-.437.245h12.346v.5h-4.762v.909h-7.466c-.005.083-.011.152-.019.237H216.6c-.027.189-.051.363-.075.549h-4.061v.9h-8.845c.093.107.139.245.317.245q3.708-.008,7.413-.008l4.866,0A1.123,1.123,0,0,1,216.356,206.43Zm-15.362-13.255c-.035,0-.056-.008-.077-.008q-3.7,0-7.4,0a.235.235,0,0,0-.149.061c-.349.365-.693.736-1.04,1.107a.46.46,0,0,0-.048.085h21.26c-.027-.035-.048-.067-.075-.1l-.963-1.032a.373.373,0,0,0-.309-.136c-2.5.011-5,.005-7.5.005H204.5v1.005H201C200.994,193.831,200.994,193.5,200.994,193.175Zm1.613,18.215a.693.693,0,0,1,.336-.867c.125-.091.261-.168.387-.261a6.95,6.95,0,0,0,.683-.528.667.667,0,0,0,.128-.875,2.677,2.677,0,0,0-.931-.968c-.192-.133-.405-.237-.6-.373a.462.462,0,0,1-.037-.736c.144-.133.291-.261.437-.389a7.579,7.579,0,0,0,1.053-.995,1.317,1.317,0,0,0,.269-.568.966.966,0,0,0-.267-.963,7.544,7.544,0,0,0-1.549-1.141,1.386,1.386,0,0,1-.315-.24.407.407,0,0,1,.069-.685,5.552,5.552,0,0,1,.512-.309,21.864,21.864,0,0,1,2.117-.995,1.454,1.454,0,0,0,.955-1.621,1.2,1.2,0,0,0-.843-1.051.8.8,0,0,0-.837.139c-.155.139-.139.3.051.381a3.852,3.852,0,0,0,.613.205.337.337,0,0,1,.261.2.92.92,0,0,1-.253,1c-.269.168-.541.341-.824.483-.605.3-1.227.576-1.832.885a4.163,4.163,0,0,0-.771.512.553.553,0,0,0-.117.725.985.985,0,0,0,.211.3c.291.253.584.507.893.733.293.213.613.392.915.595a.617.617,0,0,1,.251.821,1.47,1.47,0,0,1-.523.659,6.115,6.115,0,0,0-1.251,1.211.565.565,0,0,0-.013.747,1.622,1.622,0,0,0,.221.248,3.6,3.6,0,0,0,.992.616,1.209,1.209,0,0,1,.536.464.725.725,0,0,1,.117.544,1,1,0,0,1-.517.7,1.88,1.88,0,0,0-.7.637A.534.534,0,0,0,202.607,211.389Zm-1.331-19.681a.458.458,0,0,0-.056-.011q-2.932,0-5.864,0a.294.294,0,0,0-.16.053c-.187.128-.373.259-.555.392-.139.1-.272.213-.427.333h17.34a.338.338,0,0,0-.032-.048c-.317-.235-.635-.469-.957-.7a.238.238,0,0,0-.136-.037q-1.96,0-3.92-.005c-.72,0-1.44,0-2.16,0-.109,0-.149.032-.141.144.008.136,0,.272,0,.413h-2.941C201.277,192.06,201.277,191.889,201.277,191.708ZM189.595,199.5h10.431c-.011-.085-.019-.157-.032-.243h-2.672v-1.112a1.017,1.017,0,0,0-.115-.011q-3.52,0-7.04,0a.139.139,0,0,0-.155.109c-.051.152-.115.3-.165.448C189.765,198.953,189.685,199.219,189.595,199.5Zm25.652,9.935H204.421a.362.362,0,0,0-.093,0,.142.142,0,0,0-.085.048,1.753,1.753,0,0,1-.683.691c-.107.072-.216.141-.323.213a.249.249,0,0,0,.125.032q5.52,0,11.039.005a.421.421,0,0,0,.451-.264C214.967,209.923,215.105,209.7,215.246,209.435Zm-13.612.016H190.557c.165.3.323.565.469.843a.218.218,0,0,0,.229.128q5.532,0,11.061,0c.035,0,.067,0,.136-.008C202.09,210.144,201.722,209.923,201.634,209.451Zm-5.066,6.053c.045.032.059.043.072.051a13.285,13.285,0,0,0,2.027.837.612.612,0,0,0,.184.024h8.093a.61.61,0,0,0,.221-.032c.52-.2,1.04-.4,1.557-.613.168-.069.325-.16.488-.24,0-.008-.008-.019-.011-.027Zm-7.346-14.252c.072,0,.112.008.149.008q6.172,0,12.341,0a1.453,1.453,0,0,0,.312-.08.841.841,0,0,0-.523-.165c-2.008.005-4.016,0-6.024,0-.04,0-.077-.005-.133-.008V199.9h-5.861C189.4,200.342,189.312,200.787,189.221,201.251Zm5.5.672h-5.309c-.251,0-.251,0-.272.245,0,.027-.008.053-.011.08-.016.269-.029.536-.045.811h12.743a.558.558,0,0,0-.491-.237c-2.147.008-4.29.005-6.437.005h-.179Zm6.824,2.541h-7.952v-.888h-4.506c.029.384.056.752.083,1.128h12.343C201.522,204.627,201.53,204.558,201.543,204.465Zm-12.293.8c0,.037,0,.072.008.107.051.28.1.557.155.837.037.192.037.192.235.192q6.068,0,12.133.005c.2,0,.28-.1.384-.245h-9.127v-.9Zm14.364,2.912a1.022,1.022,0,0,0,.235.061l7.37,0h4.093c.152,0,.339.048.443-.021s.12-.264.176-.4l.024-.061c.069-.213.139-.427.211-.651h-3.7v.9h-.205q-4.14,0-8.277,0A.459.459,0,0,0,203.615,208.179Zm-1.075-.019v-.072a1.265,1.265,0,0,0-.315-.088q-4.5,0-9.01.005h-.181v-.9h-3.4c.117.344.229.667.336.995a.184.184,0,0,0,.211.144l12.117-.005A.778.778,0,0,0,202.541,208.16Zm7.917,4.365c-.216-.459-.539-.621-.928-.483a.828.828,0,0,0-.5.907c.005,0,.008.005.013.005,1.2,0,2.405,0,3.61,0a.171.171,0,0,0,.112-.053c.24-.261.483-.52.717-.787.139-.157.267-.328.413-.512h-3.429a1.145,1.145,0,0,1,.6.776C210.857,212.427,210.663,212.475,210.457,212.525Zm-18.519-.928a.377.377,0,0,0,0,.04c.368.427.736.851,1.109,1.275a.211.211,0,0,0,.141.048c.549,0,1.1,0,1.651,0,.037,0,.077-.005.109-.008V211.6C193.941,211.6,192.944,211.6,191.939,211.6Zm10.786-10.821c-.144-.064-.267-.112-.384-.173-.395-.2-.792-.395-1.173-.616a.882.882,0,0,1-.36-.981c.032-.173.123-.235.3-.275a4.26,4.26,0,0,0,.541-.173c.1-.04.235-.1.208-.224a.464.464,0,0,0-.192-.264.855.855,0,0,0-.843-.032,1.356,1.356,0,0,0-.725,1.56,1.47,1.47,0,0,0,.848,1.032c.355.173.72.317,1.083.472a.094.094,0,0,0,.075.008C202.3,201,202.5,200.9,202.725,200.777Zm.171,11.269h-.917V211.6H201.1a.925.925,0,0,1,.475.819h-.621a.472.472,0,0,0-.293-.389.9.9,0,0,0-.613.019.257.257,0,0,0-.192.245.25.25,0,0,0,.181.24c.152.059.312.1.467.152l.693.224a.681.681,0,0,0,.2.048c.456.005.915,0,1.371,0,.037,0,.077-.005.123-.008Zm-2.059-12.781c.008.248.008.245.221.245h1.7v1.253a2.59,2.59,0,0,1,.315-.144.27.27,0,0,0,.216-.331,2.858,2.858,0,0,1,0-.4v-.376h1.539c.211,0,.219-.005.253-.245h-1.792V199.1c0-.181,0-.365-.005-.547a.28.28,0,0,0-.245-.272.266.266,0,0,0-.264.235.744.744,0,0,0-.019.171c0,.187,0,.371,0,.573Zm2.019,2.243c.077.043.128.067.176.1.213.125.432.245.64.381a.387.387,0,0,1,.128.595,1.533,1.533,0,0,1-.323.291,3.182,3.182,0,0,1-.32.184l.544.405a3.363,3.363,0,0,0,.853-.781.621.621,0,0,0-.125-.947,8.256,8.256,0,0,0-.872-.531.122.122,0,0,0-.1.008C203.266,201.3,203.077,201.4,202.855,201.507Zm.2,2.371c-.187-.12-.357-.232-.531-.336a.109.109,0,0,0-.1.019,8.772,8.772,0,0,0-.651.608.78.78,0,0,0-.184.387,1.646,1.646,0,0,0,.717,1.485c.085-.08.165-.155.248-.229s.163-.144.227-.2a5.652,5.652,0,0,1-.36-.5.659.659,0,0,1,.243-.984C202.786,204.049,202.914,203.969,203.055,203.878Zm-4.984,7.717a1.572,1.572,0,0,1-.227,0,.372.372,0,0,0-.347.144c-.277.3-.565.587-.845.883-.04.04-.088.12-.072.155.043.088.075.195.221.192.387-.008.771,0,1.157,0,.037,0,.077-.005.117-.008C198.072,212.5,198.072,212.053,198.072,211.595Zm6.768.008h-.4v.445h-.912v.9h1.309Zm-1.931-5.056c.163.147.317.28.464.419a.457.457,0,0,1,0,.683c-.056.053-.12.1-.189.157l.405.3a1.87,1.87,0,0,0,.587-.549.55.55,0,0,0,.008-.627,2.1,2.1,0,0,0-.216-.272c-.171-.189-.347-.373-.528-.568C203.255,206.254,203.087,206.4,202.909,206.547Zm-.013,7.146h-1.176a2.683,2.683,0,0,1-.208.531,2.516,2.516,0,0,1-.381.373H202.9Zm.627.9h1.32v-.907c-.427,0-.845,0-1.264,0-.019,0-.051.048-.051.072C203.519,214.037,203.522,214.312,203.522,214.595Zm-.437-6.2c-.163-.083-.3-.152-.44-.219a.094.094,0,0,0-.08.011,2.355,2.355,0,0,0-.808.933.647.647,0,0,0,.061.667,2.52,2.52,0,0,0,.723.611c.085-.083.165-.155.245-.232a.876.876,0,0,1-.5-.968C202.37,208.779,202.7,208.568,203.085,208.392Zm-.339,1.059h-.416a.941.941,0,0,0,.261.52c.152.16.243.163.427.045l.248-.157a.823.823,0,0,0,.3-.411l-.28-.016c0-.261-.005-.509,0-.757a.22.22,0,0,0-.144-.245c-.085.037-.168.072-.248.109a.214.214,0,0,0-.149.235C202.754,208.99,202.746,209.206,202.746,209.451Zm5.61,3.5a1.521,1.521,0,0,1,.787-1.352h-1.288v1.352Zm-12.754.731v.912h1.341c-.179-.3-.344-.587-.515-.869a.105.105,0,0,0-.077-.04C196.106,213.685,195.858,213.685,195.6,213.685ZM205.81,211.6c.1.389.2.765.3,1.141.056.221.056.216.283.221.1,0,.147-.027.171-.128.085-.352.179-.7.269-1.053.016-.059.027-.115.043-.181Zm-3.072-6.882c0,.045.005.08.005.115,0,.179-.005.355.005.533a.3.3,0,0,0,.075.165c.011.013.093-.024.133-.051.077-.053.147-.115.219-.171a.272.272,0,0,0,.107-.256c-.008-.109,0-.219,0-.341.1,0,.2.029.251-.008s.053-.139.085-.235h-.336c0-.139,0-.264,0-.387,0-.072-.136-.184-.192-.155a1.249,1.249,0,0,0-.317.213c-.043.043-.019.152-.024.229,0,.029-.005.059-.008.1h-.2c-.165,0-.205.051-.168.243C202.487,204.715,202.61,204.715,202.738,204.715Zm-3.213,8.237a.831.831,0,0,1,.179-1.349h-.992v1.352C198.978,212.952,199.237,212.952,199.525,212.952Zm9.682,1.651a1.47,1.47,0,0,1-.757-.856.1.1,0,0,0-.075-.056c-.171-.005-.341,0-.517,0v.915ZM195.6,212.891c.411-.443.792-.859,1.189-1.288H195.6Zm7.682-10.079c0-.277-.011-.544,0-.808.008-.152-.027-.253-.179-.3a1.64,1.64,0,0,1-.235-.123c-.093-.053-.128-.021-.128.08,0,.352,0,.7,0,1.053a.149.149,0,0,0,.045.112,2.537,2.537,0,0,0,.267.173.1.1,0,0,0,.085,0c.085-.043.165-.1.269-.157C203.357,202.827,203.325,202.822,203.282,202.811ZM199.759,214.6a2.305,2.305,0,0,1-.384-.355,2.886,2.886,0,0,1-.213-.509.109.109,0,0,0-.08-.048,2.687,2.687,0,0,0-.293,0c-.029,0-.08.037-.08.059-.005.283,0,.565,0,.853Zm-1.688-.9h-.9c.168.259.325.5.483.739.125.192.181.211.419.147Zm13.823.029-.016-.04c-.224,0-.451.005-.675,0a.149.149,0,0,0-.171.12,1.176,1.176,0,0,1-.651.763.1.1,0,0,0-.027.029.705.705,0,0,0,.677-.189c.053-.051.123-.088.181-.136C211.439,214.088,211.668,213.907,211.895,213.725Zm-9.015-7.13a.2.2,0,0,0-.136.224,1.941,1.941,0,0,1,0,.373c-.037.253.027.44.288.517.051.016.117.037.152.016a.226.226,0,0,0,.093-.152c.011-.176.008-.355,0-.533a.178.178,0,0,0-.035-.12C203.127,206.808,203,206.7,202.879,206.6Zm-7.922,7.1h-1.045a.144.144,0,0,0-.013.029c.344.269.691.539,1.061.829C194.957,214.24,194.957,213.973,194.957,213.693Zm4.84,0a.647.647,0,0,0,.843.437c.259-.051.416-.224.384-.445h-1.152A.273.273,0,0,0,199.8,213.693Zm6.237.912c-.075-.3-.141-.579-.211-.853-.008-.027-.043-.061-.067-.061-.1-.008-.208,0-.312,0v.92h.461C205.938,214.605,205.972,214.605,206.034,214.605Zm3.077-.909a.7.7,0,0,0,.672.453.636.636,0,0,0,.6-.453Zm-1.861.9v-.9c-.016-.005-.024-.013-.032-.013-.328-.021-.328-.024-.411.291-.053.2-.1.408-.155.619C206.863,214.6,207.052,214.6,207.25,214.6Zm-3.9-3.085a.453.453,0,0,0,.243-.384.979.979,0,0,0-.432-.7c-.091.067-.173.128-.267.195C203.213,210.851,203.479,211.08,203.351,211.515Zm2.272,1.437c-.061-.237-.115-.453-.171-.672l-.011,0v.667C205.5,212.952,205.554,212.952,205.623,212.952Zm1.624-.64-.019,0c-.053.213-.107.427-.16.645h.179Z" transform="translate(-183.758 -184.057)"/>
          <path id="Path_16" data-name="Path 16" class="cls-1" d="M57.784,668.137c0-.272,0-.525.005-.776,0-.027.053-.064.088-.072.352-.091.7-.176,1.056-.264a6.306,6.306,0,0,0,.659-.189l-.363-.107c-.44-.123-.877-.248-1.32-.365-.083-.021-.117-.053-.115-.141.005-.235,0-.469,0-.723.928.019,1.824.037,2.73.053v.493H58.478c.173.048.315.088.456.125.5.133.992.269,1.491.4.077.021.112.056.1.139a1.151,1.151,0,0,0-.008.253c.021.155-.061.189-.189.216-.592.131-1.184.269-1.776.405a.867.867,0,0,0-.109.035c0,.016,0,.032.005.048H60.31c.2,0,.2,0,.195.195v.323C59.595,668.167,58.691,668.153,57.784,668.137Z" transform="translate(-56.243 -647.753)"/>
          <path id="Path_17" data-name="Path 17" class="cls-1" d="M1147.705,1015.293l-.939-.635c.1-.152.2-.3.309-.459.752.509,1.5,1.013,2.264,1.528-.107.155-.208.309-.312.461-.168.245-.331.493-.507.733a.773.773,0,0,1-.477.357.765.765,0,0,1-.885-.979c.013-.043.029-.083.051-.147a4.265,4.265,0,0,1-1.509.088c.131-.195.24-.363.357-.528.013-.019.064-.019.1-.019.333-.005.667-.013,1-.008A.59.59,0,0,0,1147.705,1015.293Zm.363.243c-.155.243-.3.467-.44.7a.3.3,0,0,0,.112.419.285.285,0,0,0,.416-.032c.176-.219.328-.456.5-.691C1148.452,1015.794,1148.268,1015.672,1148.068,1015.536Z" transform="translate(-1115.15 -987.155)"/>
          <path id="Path_18" data-name="Path 18" class="cls-1" d="M1024.63,161.336l-.472-.235a.09.09,0,0,1-.011-.027.648.648,0,0,0-.381-.789.707.707,0,0,0-.845.133,1.472,1.472,0,0,0-.424.651.741.741,0,0,0,.459.917c.024.011.051.019.075.027.357.12.371.115.6-.211l-.251-.192-.245-.189c.093-.123.181-.24.277-.365.32.24.629.475.947.712-.208.277-.405.547-.613.813a.177.177,0,0,1-.123.061,1.688,1.688,0,0,1-1.667-1.192,1.568,1.568,0,0,1,1.448-1.757,1.488,1.488,0,0,1,1.309,1.005A.928.928,0,0,1,1024.63,161.336Z" transform="translate(-994.677 -155.434)"/>
          <path id="Path_19" data-name="Path 19" class="cls-1" d="M610.32,47.467a1.238,1.238,0,0,1-1.291-1.173,1.694,1.694,0,0,1,.093-.928,1.207,1.207,0,0,1,1.141-.733,1.249,1.249,0,0,1,1.379,1.192,1.657,1.657,0,0,1-.1.912A1.238,1.238,0,0,1,610.32,47.467ZM609.55,46a4.926,4.926,0,0,0,.147.56.72.72,0,0,0,1.317.016,1.3,1.3,0,0,0-.011-.987.726.726,0,0,0-1.232-.24A1.027,1.027,0,0,0,609.55,46Z" transform="translate(-592.767 -43.439)"/>
          <path id="Path_20" data-name="Path 20" class="cls-1" d="M90.5,440.044c.107-.269.208-.531.315-.787.056-.136.115-.269.179-.4a.955.955,0,0,1,.955-.573,1.963,1.963,0,0,1,1.229.475.937.937,0,0,1,.339,1.037c-.131.429-.312.843-.475,1.275Zm.629-.344c.573.232,1.125.453,1.691.683.08-.229.16-.44.229-.653a.425.425,0,0,0-.155-.488,1.92,1.92,0,0,0-.952-.411.5.5,0,0,0-.541.261C91.3,439.281,91.223,439.486,91.129,439.7Z" transform="translate(-88.087 -426.595)"/>
          <path id="Path_21" data-name="Path 21" class="cls-1" d="M176.911,1042.746c.211.021.4.043.6.053a.268.268,0,0,0,.139-.067c.179-.136.355-.277.544-.427l.344.435-2.152,1.685c-.115-.147-.224-.288-.341-.437.307-.243.608-.48.939-.739-.179-.019-.323-.037-.467-.051-.357-.029-.717-.056-1.075-.085a.173.173,0,0,1-.115-.048c-.136-.168-.267-.341-.424-.541l1.472.155c.216-.624.427-1.24.648-1.88.147.189.283.357.411.531.019.027.005.085-.011.123q-.224.576-.453,1.152C176.948,1042.642,176.935,1042.685,176.911,1042.746Z" transform="translate(-170.236 -1013.046)"/>
          <path id="Path_22" data-name="Path 22" class="cls-1" d="M1101.684,230.8c-.117.107-.224.2-.344.309-.328-.365-.651-.723-.981-1.088-.152.133-.3.264-.451.4.3.339.605.675.912,1.019-.117.107-.224.2-.344.307-.307-.341-.605-.672-.915-1.013l-.547.493,1.016,1.133-.341.309c-.464-.515-.923-1.027-1.389-1.544.683-.613,1.352-1.219,2.029-1.829C1100.782,229.8,1101.228,230.3,1101.684,230.8Z" transform="translate(-1069.014 -223.185)"/>
          <path id="Path_23" data-name="Path 23" class="cls-1" d="M917.666,92.252c-.069.144-.136.277-.2.416l-1.864-.909c.4-.819.795-1.635,1.2-2.459.611.3,1.208.592,1.816.888-.069.144-.131.269-.2.413-.44-.213-.877-.427-1.32-.64-.088.184-.173.357-.261.544l1.221.6c-.067.141-.128.272-.2.416-.408-.2-.811-.392-1.229-.6-.107.219-.211.429-.325.661C916.752,91.8,917.2,92.025,917.666,92.252Z" transform="translate(-891.185 -86.918)"/>
          <path id="Path_24" data-name="Path 24" class="cls-1" d="M377,1190.388c-.083.141-.155.267-.232.4-.395-.229-.781-.451-1.181-.68l-.371.637,1.315.763c-.077.136-.149.261-.229.4l-1.8-1.04c.456-.792.907-1.573,1.365-2.368.584.336,1.16.672,1.749,1.011-.077.136-.149.261-.229.4-.421-.243-.84-.483-1.272-.733-.1.171-.2.336-.3.52Z" transform="translate(-364.514 -1156.807)"/>
          <path id="Path_25" data-name="Path 25" class="cls-1" d="M65.508,549.036l.584.115c.043.008.085.013.141.021.051-.253.1-.5.147-.747s.1-.485.144-.741l.451.091c-.131.677-.261,1.347-.395,2.035-.9-.173-1.784-.347-2.68-.523.128-.667.256-1.317.384-1.987l.451.091-.28,1.44c.2.037.389.072.6.112.088-.451.173-.888.259-1.336.155.029.3.056.453.083C65.679,548.143,65.6,548.58,65.508,549.036Z" transform="translate(-62.196 -532.705)"/>
          <path id="Path_26" data-name="Path 26" class="cls-1" d="M113.181,930.854c-.088-.155-.171-.3-.259-.456.037-.032.072-.064.107-.1a.63.63,0,0,0-.165-1,.284.284,0,0,0-.424.28c.029.256.064.509.1.763a.808.808,0,0,1-.368.848.711.711,0,0,1-.829-.085,1.456,1.456,0,0,1-.469-1.037.768.768,0,0,1,.469-.736c.08.163.16.323.235.477,0,.013,0,.024-.008.027a.543.543,0,0,0,.027.856c.077.067.173.128.261.059a.337.337,0,0,0,.125-.224c0-.184-.045-.368-.056-.555a2.9,2.9,0,0,1-.005-.7.8.8,0,0,1,1.261-.381,1.435,1.435,0,0,1,.525,1.224A.881.881,0,0,1,113.181,930.854Z" transform="translate(-107.918 -903.956)"/>
          <path id="Path_27" data-name="Path 27" class="cls-1" d="M270.714,213.505c-.219-.576-.429-1.128-.637-1.677-.117-.312-.232-.624-.355-.931-.037-.093-.048-.163.051-.224a1,1,0,0,0,.16-.141c.173-.16.173-.163.376-.064q1.184.58,2.365,1.163l.072.043c-.139.125-.269.251-.408.363-.024.019-.091,0-.128-.019-.163-.08-.323-.165-.491-.251-.256.229-.512.456-.763.691a.146.146,0,0,0-.019.125c.053.149.12.3.176.445.013.035.019.1,0,.115C270.988,213.263,270.858,213.375,270.714,213.505Zm0-1.467.555-.5-.915-.475-.024.021C270.458,211.4,270.583,211.705,270.716,212.039Z" transform="translate(-262.503 -204.79)"/>
          <path id="Path_28" data-name="Path 28" class="cls-1" d="M1228.288,482.551c-.059-.165-.12-.331-.171-.5-.008-.029.024-.083.051-.107.12-.107.248-.2.363-.312a.167.167,0,0,0,.04-.144c-.091-.291-.189-.581-.3-.867a.161.161,0,0,0-.12-.085c-.16-.011-.32,0-.48-.011-.037,0-.093-.024-.1-.051-.061-.155-.112-.315-.171-.488a1.183,1.183,0,0,1,.125-.008c.888.035,1.773.069,2.661.1a.168.168,0,0,1,.187.144c.029.115.08.227.112.341a.139.139,0,0,1-.027.123q-1.072.932-2.147,1.853A.082.082,0,0,0,1228.288,482.551Zm.7-1.3c.277-.229.536-.448.8-.664-.005-.011-.011-.019-.016-.029h-1.019C1228.829,480.791,1228.9,481.015,1228.986,481.255Z" transform="translate(-1194.671 -467.18)"/>
          <path id="Path_29" data-name="Path 29" class="cls-1" d="M1222.832,927.293l-.211.507c-.12-.051-.232-.1-.344-.144-.448-.192-.893-.387-1.341-.581a.868.868,0,0,1-.483-1.277,1.962,1.962,0,0,1,.352-.571.7.7,0,0,1,.787-.181c.627.229,1.243.491,1.88.744-.077.187-.144.347-.219.523l-.789-.333c-.277-.117-.557-.229-.835-.349-.432-.189-.672.083-.76.424a.389.389,0,0,0,.237.491c.373.176.755.333,1.131.5Z" transform="translate(-1187.802 -900.328)"/>
          <path id="Path_30" data-name="Path 30" class="cls-1" d="M1266.784,819.183c-.051.224-.1.432-.147.637-.056.227-.109.456-.173.683a.769.769,0,0,1-1.021.517.8.8,0,0,1-.579-1.045c.043-.208.085-.416.131-.635-.333-.077-.659-.155-.995-.235.035-.149.072-.285.093-.427.016-.1.061-.107.147-.088.464.112.931.219,1.4.325C1266.016,819.007,1266.389,819.093,1266.784,819.183Zm-1.347.259c-.037.243-.085.467-.107.7a.367.367,0,0,0,.693.149c.077-.213.128-.437.195-.664C1265.949,819.559,1265.707,819.5,1265.437,819.442Z" transform="translate(-1230.295 -796.754)"/>
          <path id="Path_31" data-name="Path 31" class="cls-1" d="M1005.806,1175.3a.8.8,0,0,1,1.427-.2.916.916,0,0,1,.171.933.863.863,0,0,1-.731.547.777.777,0,0,1-.6-.163,2.389,2.389,0,0,1-.928-1.488.91.91,0,0,1,.528-.917.733.733,0,0,1,.9.208c-.128.107-.253.213-.381.323-.1-.091-.2-.171-.339-.12a.321.321,0,0,0-.227.363A4.731,4.731,0,0,0,1005.806,1175.3Zm.856.805a.31.31,0,0,0,.317-.248.728.728,0,0,0-.392-.653.323.323,0,0,0-.448.224A.623.623,0,0,0,1006.662,1176.1Z" transform="translate(-978.333 -1142.628)"/>
          <path id="Path_32" data-name="Path 32" class="cls-1" d="M492.851,70.062h.456a.641.641,0,0,1,.075.008,1.021,1.021,0,0,1-.627,1.107,1.207,1.207,0,0,1-1.683-.661,1.674,1.674,0,0,1-.152-1.112,1.192,1.192,0,0,1,.989-.909,1,1,0,0,1,1.152.48c-.155.091-.309.184-.491.288a.435.435,0,0,0-.029-.061.551.551,0,0,0-.619-.219.615.615,0,0,0-.48.541,1.613,1.613,0,0,0,.317,1.061.589.589,0,0,0,.691.2.6.6,0,0,0,.4-.56A1.611,1.611,0,0,0,492.851,70.062Z" transform="translate(-477.79 -66.634)"/>
          <path id="Path_33" data-name="Path 33" class="cls-1" d="M183.773,290.727c.152-.109.291-.213.432-.315a1.026,1.026,0,0,1,.195,1.189,1.231,1.231,0,0,1-1.853.509,1.6,1.6,0,0,1-.795-1.037,1.256,1.256,0,0,1,1.173-1.44,2.933,2.933,0,0,1,.384.075c-.08.184-.149.347-.219.509-.029,0-.048,0-.064-.005a.567.567,0,0,0-.691.256.622.622,0,0,0,.043.744,1.746,1.746,0,0,0,.749.557.6.6,0,0,0,.728-.2.583.583,0,0,0,.005-.717C183.835,290.818,183.808,290.778,183.773,290.727Z" transform="translate(-176.888 -281.908)"/>
          <path id="Path_34" data-name="Path 34" class="cls-1" d="M932.125,1220.354a.8.8,0,0,1-.467.795.748.748,0,0,1-.917-.157,2.7,2.7,0,0,1-.747-1.584.724.724,0,0,1,.421-.765.733.733,0,0,1,.909.109A2.8,2.8,0,0,1,932.125,1220.354Zm-.509.1a.4.4,0,0,0-.019-.1c-.125-.293-.24-.589-.384-.875a2.186,2.186,0,0,0-.3-.419.222.222,0,0,0-.283-.045.233.233,0,0,0-.139.237.517.517,0,0,0,.021.171c.149.339.3.68.461,1.013a1.1,1.1,0,0,0,.195.251.243.243,0,0,0,.291.067A.276.276,0,0,0,931.616,1220.455Z" transform="translate(-905.191 -1186.04)"/>
          <path id="Path_35" data-name="Path 35" class="cls-1" d="M851.847,1252.17a.8.8,0,0,1-.9.9.821.821,0,0,1-.667-.493,3.006,3.006,0,0,1-.384-1.435.758.758,0,0,1,.523-.768.746.746,0,0,1,.9.243,2.92,2.92,0,0,1,.315.565A2.507,2.507,0,0,1,851.847,1252.17Zm-.509.1.032-.008c-.077-.28-.144-.565-.237-.84a3.282,3.282,0,0,0-.24-.531.24.24,0,0,0-.293-.123.264.264,0,0,0-.192.272.608.608,0,0,0,.011.171c.061.251.112.5.195.744a3.356,3.356,0,0,0,.267.56.225.225,0,0,0,.283.088.243.243,0,0,0,.176-.24Z" transform="translate(-827.232 -1216.971)"/>
          <path id="Path_36" data-name="Path 36" class="cls-1" d="M624.342,1274.949c.032-.323.061-.629.093-.949l.517.04c-.08.912-.16,1.811-.24,2.722l-.477-.04c.005-.088.008-.165.013-.224a2.342,2.342,0,0,1-.453.2.731.731,0,0,1-.816-.429,1.325,1.325,0,0,1,.051-1.205.762.762,0,0,1,1.245-.176A.4.4,0,0,0,624.342,1274.949Zm-.037.656-.016,0c-.008-.061-.008-.125-.021-.184a.421.421,0,0,0-.381-.355.415.415,0,0,0-.416.309,2.247,2.247,0,0,0-.048.552.4.4,0,0,0,.784.123A3.9,3.9,0,0,0,624.3,1275.605Z" transform="translate(-606.25 -1240.028)"/>
          <path id="Path_37" data-name="Path 37" class="cls-1" d="M763.576,1269.919h-.491a.722.722,0,0,1,.3-.736,1.079,1.079,0,0,1,.891-.157.774.774,0,0,1,.469,1.125,6.944,6.944,0,0,1-.531.792c-.069.1-.141.2-.211.3.008.011.013.021.021.032l.493-.072c.165-.024.333-.043.512-.067.021.165.043.317.064.477l-1.8.256a1.165,1.165,0,0,1,.219-.771c.2-.288.419-.562.627-.843a.651.651,0,0,0,.165-.515.321.321,0,0,0-.357-.3.344.344,0,0,0-.347.32A1.33,1.33,0,0,0,763.576,1269.919Z" transform="translate(-742.721 -1235.152)"/>
          <path id="Path_38" data-name="Path 38" class="cls-1" d="M479.076,1266.159l-.467-.075c0-.3-.229-.355-.448-.4a.236.236,0,0,0-.2.069c-.056.069.011.141.077.187.152.107.307.211.459.32.072.051.139.109.208.168a.556.556,0,0,1-.157.939c-.365.181-1.325-.083-1.427-.7-.011-.069-.011-.139-.019-.227.173.035.328.061.483.1.021.005.045.059.048.091a.5.5,0,0,0,.592.387.206.206,0,0,0,.123-.136.22.22,0,0,0-.085-.163c-.189-.147-.395-.272-.581-.421a.539.539,0,0,1-.2-.672.559.559,0,0,1,.581-.336,1.186,1.186,0,0,1,.944.464,1.313,1.313,0,0,1,.12.379A.18.18,0,0,0,479.076,1266.159Z" transform="translate(-464.378 -1231.545)"/>
          <path id="Path_39" data-name="Path 39" class="cls-1" d="M278.08,1140.714c.088-.269.171-.539.267-.805a.147.147,0,0,0-.067-.205,6.876,6.876,0,0,1-.68-.528h.469c.128,0,.259-.008.387,0,.107.008.141-.037.171-.133.08-.269.173-.539.272-.845.093.293.179.549.256.805.035.117.083.181.227.173.269-.016.541-.005.856-.005-.075.059-.117.093-.165.128-.192.141-.387.285-.581.421a.108.108,0,0,0-.048.152c.1.28.184.563.285.88-.256-.184-.488-.339-.707-.515a.17.17,0,0,0-.251,0c-.219.165-.443.325-.664.488A.232.232,0,0,0,278.08,1140.714Z" transform="translate(-270.198 -1107.849)"/>
          <path id="Path_40" data-name="Path 40" class="cls-1" d="M69.1,849.214c.147-.037.285-.072.443-.115.069.256.139.507.213.773l2.189-.584c.048.179.1.349.144.533-.731.2-1.451.389-2.189.589.067.259.133.509.2.779l-.443.123C69.473,850.609,69.289,849.918,69.1,849.214Z" transform="translate(-67.257 -826.458)"/>
          <path id="Path_41" data-name="Path 41" class="cls-1" d="M1275.7,725.8c.021-.28.04-.533.059-.8.157.008.3.019.461.027-.051.723-.1,1.437-.152,2.163l-.461-.029c.019-.269.04-.528.059-.8-.757-.053-1.5-.107-2.261-.163.01-.184.021-.355.035-.547C1274.189,725.7,1274.933,725.749,1275.7,725.8Z" transform="translate(-1239.445 -705.667)"/>
          <path id="Path_42" data-name="Path 42" class="cls-1" d="M1095.291,1123.754c.091-.28.168-.523.251-.765.072-.211.072-.208-.109-.339-.205-.147-.408-.3-.632-.461a.737.737,0,0,1,.1-.016c.267,0,.533,0,.8,0a.121.121,0,0,0,.139-.1c.085-.28.179-.555.28-.872.067.2.123.365.179.533.035.1.072.211.1.317a.141.141,0,0,0,.165.125c.283-.008.568,0,.853,0a.482.482,0,0,0,.035.04.364.364,0,0,0-.08.032c-.216.157-.429.317-.645.469a.121.121,0,0,0-.056.163c.088.251.165.5.248.757.008.027.016.056.029.115l-.821-.594C1095.856,1123.346,1095.589,1123.538,1095.291,1123.754Z" transform="translate(-1065.607 -1091.302)"/>
          <path id="Path_43" data-name="Path 43" class="cls-1" d="M344.088,154.085c.384-.248.757-.493,1.147-.744.083.125.165.248.256.384-.539.349-1.072.7-1.616,1.051L342.4,152.5c.155-.1.3-.2.464-.3C343.272,152.827,343.675,153.451,344.088,154.085Z" transform="translate(-333.27 -148.14)"/>
          <path id="Path_44" data-name="Path 44" class="cls-1" d="M828.455,60.512c.445.128.875.251,1.312.379-.043.152-.083.3-.125.445-.595-.171-1.176-.341-1.76-.507-.083-.024-.075-.069-.059-.131.155-.536.307-1.072.461-1.608.083-.293.168-.587.253-.891.181.053.349.1.531.152C828.869,59.072,828.663,59.784,828.455,60.512Z" transform="translate(-805.74 -56.647)"/>
          <path id="Path_45" data-name="Path 45" class="cls-1" d="M1188.575,360.473l.661,1.2c-.131.072-.256.144-.4.227-.312-.56-.619-1.117-.933-1.683.789-.437,1.573-.875,2.368-1.315.088.16.173.312.267.485Z" transform="translate(-1156.225 -349.329)"/>
          <path id="Path_46" data-name="Path 46" class="cls-1" d="M1265.774,577.9c.032.195.056.365.085.547l-2.216.355c.069.453.139.9.211,1.352-.157.024-.3.045-.453.067-.1-.635-.2-1.256-.3-1.9C1263.988,578.185,1264.873,578.044,1265.774,577.9Z" transform="translate(-1229.419 -562.489)"/>
          <path id="Path_47" data-name="Path 47" class="cls-1" d="M735.584,44.048c-.064.749-.128,1.485-.195,2.24.453.04.9.077,1.363.12-.013.149-.024.291-.037.459-.635-.056-1.264-.109-1.915-.168.077-.9.157-1.789.237-2.7C735.218,44.016,735.389,44.032,735.584,44.048Z" transform="translate(-715.206 -42.826)"/>
          <path id="Path_48" data-name="Path 48" class="cls-1" d="M570.638,1266.583l.344.085c-.032.133-.061.261-.093.4l-.344-.075c-.048.205-.1.405-.144.608-.027.112-.048.224-.072.339-.04.176.005.237.184.245.035,0,.069,0,.12,0-.013.12-.021.232-.04.344,0,.021-.035.056-.056.056a.88.88,0,0,1-.621-.136.3.3,0,0,1-.141-.3c.043-.267.093-.531.147-.795.032-.155.072-.309.112-.472l-.232-.069c.032-.128.061-.256.1-.395.08.013.152.024.224.037.011-.019.021-.029.021-.043-.005-.283.16-.4.416-.44a1.74,1.74,0,0,0,.235-.072Z" transform="translate(-554.578 -1232.144)"/>
          <path id="Path_49" data-name="Path 49" class="cls-1" d="M150.185,1012.382c-.1-.163-.187-.309-.285-.475.779-.469,1.552-.933,2.339-1.408.093.157.187.309.285.475C151.745,1011.444,150.972,1011.908,150.185,1012.382Z" transform="translate(-145.903 -983.554)"/>
          <path id="Path_50" data-name="Path 50" class="cls-1" d="M138.469,377.4c.8.445,1.587.88,2.387,1.325-.091.165-.176.317-.267.485-.8-.445-1.589-.883-2.389-1.325C138.291,377.72,138.376,377.568,138.469,377.4Z" transform="translate(-134.515 -367.335)"/>
          <path id="Path_51" data-name="Path 51" class="cls-1" d="M1278.106,679.3c.008.179.016.352.027.549l-2.733.1V679.4Z" transform="translate(-1241.391 -661.185)"/>
          <path id="Path_52" data-name="Path 52" class="cls-1" d="M724.5,1358.807H724v-.507h.5Z" transform="translate(-704.694 -1322.08)"/>
        </g>
      </g>
      <text id="KIST_MEDICAL_COLLEGE" data-name="KIST
MEDICAL
COLLEGE" class="cls-2" transform="translate(41.13 9)"><tspan x="0" y="0">KIST</tspan><tspan x="0" y="12">MEDICAL</tspan><tspan x="0" y="24">COLLEGE</tspan></text>
    </g>
    <text id="Affiliated_with_Tribhuvan_University" data-name="Affiliated with Tribhuvan University" class="cls-3" transform="translate(146.735 77.637)"><tspan x="0" y="0">Affiliated with Tribhuvan University</tspan></text>
  </g>
</svg>
