<svg xmlns="http://www.w3.org/2000/svg" viewBox="700.128 -1199.517 57.361 43.034">
  <defs>
    <style>
      .cls-1 {
        fill: #e02f2f;
      }

      .cls-2 {
        fill: #fff;
      }
    </style>
  </defs>
  <g id="if_youtube_317714" transform="translate(700.128 -1199.517)">
    <path id="Path_7" data-name="Path 7" class="cls-1" d="M56.787,13.286s-.559-4.219-2.279-6.077a7.913,7.913,0,0,0-5.747-2.587C40.733,4,28.693,4,28.693,4h-.027S16.625,4,8.6,4.622A7.916,7.916,0,0,0,2.853,7.21C1.135,9.067.574,13.286.574,13.286A98.563,98.563,0,0,0,0,23.188v4.641a98.528,98.528,0,0,0,.574,9.9s.559,4.217,2.279,6.071c2.184,2.435,5.048,2.362,6.324,2.616,4.588.47,19.5.615,19.5.615s12.053-.022,20.081-.637A7.947,7.947,0,0,0,54.508,43.8c1.718-1.854,2.279-6.071,2.279-6.071a98.575,98.575,0,0,0,.574-9.9V23.19A98.575,98.575,0,0,0,56.787,13.286Z" transform="translate(0 -4)"/>
    <path id="Path_8" data-name="Path 8" class="cls-2" d="M12,10V31.517L29.931,20.759Z" transform="translate(9.517 0.759)"/>
  </g>
</svg>
